<?xml version="1.0" encoding="UTF-8"?>
<svg xmlns="http://www.w3.org/2000/svg" xmlns:xlink="http://www.w3.org/1999/xlink" viewBox="0 0 1155.11 827.97">
  <defs>
    <style>
      .cls-1, .cls-2, .cls-3, .cls-4, .cls-5, .cls-6, .cls-7, .cls-8, .cls-9 {
        fill: none;
      }

      .cls-2, .cls-10, .cls-11, .cls-12, .cls-13, .cls-14, .cls-15, .cls-16, .cls-17 {
        opacity: .5;
      }

      .cls-3 {
        opacity: .77;
      }

      .cls-4 {
        clip-path: url(#clippath-2);
      }

      .cls-5 {
        clip-path: url(#clippath-1);
      }

      .cls-6 {
        isolation: isolate;
      }

      .cls-18 {
        fill: #ed3232;
      }

      .cls-19 {
        fill: #f59d00;
      }

      .cls-20 {
        fill: #fff;
      }

      .cls-21 {
        fill: #ff8d8d;
      }

      .cls-22 {
        fill: #728bc4;
      }

      .cls-23 {
        fill: #b57400;
      }

      .cls-24 {
        fill: #91a7e2;
      }

      .cls-25 {
        fill: #d7e2ff;
      }

      .cls-26 {
        fill: #cbdaf4;
      }

      .cls-27 {
        fill: #c61717;
      }

      .cls-28 {
        fill: #d62222;
      }

      .cls-29 {
        fill: #ad6e47;
      }

      .cls-30 {
        fill: #e1edff;
      }

      .cls-31 {
        fill: #e1f2f9;
      }

      .cls-32 {
        fill: #15244f;
      }

      .cls-33 {
        fill: #0c193a;
      }

      .cls-34 {
        fill: #704226;
      }

      .cls-35 {
        fill: #5975ad;
      }

      .cls-36 {
        fill: #5775b2;
      }

      .cls-37 {
        fill: #839add;
      }

      .cls-10 {
        fill: url(#linear-gradient-8);
      }

      .cls-10, .cls-11, .cls-12, .cls-13, .cls-14, .cls-15, .cls-16, .cls-17 {
        mix-blend-mode: screen;
      }

      .cls-11 {
        fill: url(#linear-gradient-5);
      }

      .cls-12 {
        fill: url(#linear-gradient-7);
      }

      .cls-13 {
        fill: url(#linear-gradient-6);
      }

      .cls-14 {
        fill: url(#linear-gradient-4);
      }

      .cls-15 {
        fill: url(#linear-gradient-2);
      }

      .cls-16 {
        fill: url(#linear-gradient-3);
      }

      .cls-7 {
        mix-blend-mode: multiply;
        stroke: #3b869d;
      }

      .cls-7, .cls-8 {
        stroke-miterlimit: 10;
      }

      .cls-38 {
        fill: url(#radial-gradient-2);
      }

      .cls-8 {
        stroke: #0c193a;
      }

      .cls-17 {
        fill: url(#linear-gradient);
      }

      .cls-39 {
        fill: url(#radial-gradient);
      }

      .cls-9 {
        clip-path: url(#clippath);
      }
    </style>
    <clipPath id="clippath">
      <path class="cls-1" d="m691.36,98.18c-31.57,5.94-61.38,15.72-89.07,28.74-35.32,16.61-76.13,15.12-111.56-1.22-51.68-23.83-111.79-30.55-171.67-14.55-127.85,34.18-208.49,163.48-183.12,293.37,21.81,111.64,113.23,191.06,219.63,203.39,40.58,4.7,77.06,26.65,100.19,60.32,82.3,119.79,231.67,184.21,382.37,151.1,204.8-45,331.96-252.49,275.8-457.28-50.34-183.57-235.5-299.06-422.56-263.86Z"/>
    </clipPath>
    <clipPath id="clippath-1">
      <path class="cls-1" d="m1291.25,270.81v463.44H97.92V193.82c114.29-28.56,364.75-71.75,569.73,29.45,242.06,119.5,552.59,62.84,623.6,47.54Z"/>
    </clipPath>
    <linearGradient id="linear-gradient" x1="772.77" y1="682.41" x2="922.44" y2="195.47" gradientTransform="translate(-676.09 933.15) rotate(16.21) scale(1 -1)" gradientUnits="userSpaceOnUse">
      <stop offset="0" stop-color="#fdfdfe" stop-opacity="0"/>
      <stop offset=".2" stop-color="#f9fafc" stop-opacity=".02"/>
      <stop offset=".36" stop-color="#f0f4f5" stop-opacity=".08"/>
      <stop offset=".5" stop-color="#dfe9eb" stop-opacity=".19"/>
      <stop offset=".64" stop-color="#c8dadd" stop-opacity=".34"/>
      <stop offset=".77" stop-color="#a9c6ca" stop-opacity=".54"/>
      <stop offset=".9" stop-color="#85afb3" stop-opacity=".77"/>
      <stop offset="1" stop-color="#62989e"/>
    </linearGradient>
    <linearGradient id="linear-gradient-2" x1="731.55" y1="624.71" x2="874.85" y2="158.62" gradientTransform="translate(-565.63 917.42) rotate(16.21) scale(1 -1)" xlink:href="#linear-gradient"/>
    <linearGradient id="linear-gradient-3" x1="488.3" y1="672.06" x2="637.97" y2="185.11" gradientTransform="translate(-115.59 992.28) rotate(16.21) scale(1 -1)" xlink:href="#linear-gradient"/>
    <linearGradient id="linear-gradient-4" x1="447.09" y1="614.35" x2="590.38" y2="148.26" gradientTransform="translate(-5.13 976.55) rotate(16.21) scale(1 -1)" xlink:href="#linear-gradient"/>
    <linearGradient id="linear-gradient-5" x1="151.55" y1="687.79" x2="301.22" y2="200.85" gradientTransform="translate(540.14 1117.16) rotate(16.21) scale(1 -1)" xlink:href="#linear-gradient"/>
    <linearGradient id="linear-gradient-6" x1="110.33" y1="630.09" x2="253.63" y2="164" gradientTransform="translate(650.6 1101.42) rotate(16.21) scale(1 -1)" xlink:href="#linear-gradient"/>
    <linearGradient id="linear-gradient-7" x1="-172.61" y1="672.06" x2="-22.95" y2="185.11" gradientTransform="translate(1179.96 1176.83) rotate(16.21) scale(1 -1)" xlink:href="#linear-gradient"/>
    <linearGradient id="linear-gradient-8" x1="-213.83" y1="614.35" x2="-70.53" y2="148.26" gradientTransform="translate(1290.42 1161.1) rotate(16.21) scale(1 -1)" xlink:href="#linear-gradient"/>
    <clipPath id="clippath-2">
      <path class="cls-1" d="m1291.25,270.81v463.44H97.92V193.82c114.29-28.56,364.75-71.75,569.73,29.45,242.06,119.5,552.59,62.84,623.6,47.54Z"/>
    </clipPath>
    <radialGradient id="radial-gradient" cx="662.39" cy="495.98" fx="662.39" fy="495.98" r="23.11" gradientUnits="userSpaceOnUse">
      <stop offset="0" stop-color="#ff0050"/>
      <stop offset=".3" stop-color="#fa1248"/>
      <stop offset=".72" stop-color="#f4263f"/>
      <stop offset="1" stop-color="#f32e3d"/>
    </radialGradient>
    <radialGradient id="radial-gradient-2" cx="947.18" fx="947.18" xlink:href="#radial-gradient"/>
  </defs>
  <g class="cls-6">
    <g id="Layer_2" data-name="Layer 2">
      <g id="OBJECTS">
        <g>
          <path class="cls-30" d="m455.76,668.23c27.04,39.36,61.32,72.74,100.51,98.64h406.01c128.2-84.87,195.29-245.66,151.65-404.82-50.34-183.57-235.5-299.06-422.56-263.86-31.57,5.94-61.38,15.72-89.07,28.74-35.32,16.61-76.13,15.12-111.56-1.23-51.68-23.83-111.79-30.55-171.67-14.55-127.85,34.18-208.49,163.48-183.12,293.37,21.81,111.64,113.23,191.06,219.63,203.39,40.58,4.7,77.06,26.65,100.19,60.32Z"/>
          <g class="cls-9">
            <g>
              <path class="cls-26" d="m1291.25,270.81v463.44H97.92V193.82c114.29-28.56,364.75-71.75,569.73,29.45,242.06,119.5,552.59,62.84,623.6,47.54Z"/>
              <g class="cls-2">
                <g class="cls-5">
                  <g>
                    <g>
                      <rect class="cls-17" x="228.8" y="156.62" width="58.31" height="867.1" transform="translate(670.45 1084.82) rotate(163.79)"/>
                      <rect class="cls-15" x="300.75" y="140.88" width="22.64" height="867.1" transform="translate(772.12 1038.87) rotate(163.79)"/>
                    </g>
                    <g>
                      <rect class="cls-16" x="513.27" y="146.26" width="58.31" height="867.1" transform="translate(1225.17 985.09) rotate(163.79)"/>
                      <rect class="cls-14" x="585.21" y="130.52" width="22.64" height="867.1" transform="translate(1326.84 939.14) rotate(163.79)"/>
                    </g>
                    <g>
                      <rect class="cls-11" x="850.02" y="161.99" width="58.31" height="867.1" transform="translate(1889.68 921.9) rotate(163.79)"/>
                      <rect class="cls-13" x="921.97" y="146.26" width="22.64" height="867.1" transform="translate(1991.35 875.95) rotate(163.79)"/>
                    </g>
                    <g>
                      <rect class="cls-12" x="1174.18" y="146.26" width="58.31" height="867.1" transform="translate(2520.72 800.54) rotate(163.79)"/>
                      <rect class="cls-10" x="1246.13" y="130.52" width="22.64" height="867.1" transform="translate(2622.39 754.59) rotate(163.79)"/>
                    </g>
                  </g>
                </g>
              </g>
              <path class="cls-36" d="m1291.25,272.95c-1.19,0-2.39.12-3.6.38-60.32,13-373.34,71.88-612.42-46.15-91.8-45.33-201.72-67.25-326.73-65.15-101.16,1.69-191.4,18.87-250.57,33.42v34.7c1.37,0,2.76-.15,4.15-.49,100-24.99,354.56-72.25,558.02,28.2,102.39,50.55,227.35,76.15,371.64,76.15,3.99,0,8.02-.02,12.04-.06,114.48-1.12,208.84-18.25,247.48-26.4v-34.58Z"/>
              <g class="cls-4">
                <g>
                  <line class="cls-7" x1="223.85" y1="67.9" x2="223.85" y2="817.05"/>
                  <line class="cls-7" x1="385.94" y1="67.9" x2="385.94" y2="817.05"/>
                  <line class="cls-7" x1="548.03" y1="67.9" x2="548.03" y2="817.05"/>
                  <line class="cls-7" x1="710.11" y1="67.9" x2="710.11" y2="817.05"/>
                  <line class="cls-7" x1="872.2" y1="67.9" x2="872.2" y2="817.05"/>
                  <line class="cls-7" x1="1034.28" y1="67.9" x2="1034.28" y2="817.05"/>
                  <line class="cls-7" x1="92.37" y1="767.72" x2="1315.41" y2="767.72"/>
                  <line class="cls-7" x1="92.37" y1="637.69" x2="1315.41" y2="637.69"/>
                  <line class="cls-7" x1="92.37" y1="475.61" x2="1315.41" y2="475.61"/>
                  <line class="cls-7" x1="92.37" y1="313.52" x2="1315.41" y2="313.52"/>
                </g>
              </g>
              <path class="cls-22" d="m1031.73,314.75c-144.29,0-269.25-25.6-371.64-76.15-203.46-100.45-458.02-53.18-558.02-28.2-9.18,2.29-18.45-3.28-20.73-12.44-2.29-9.16,3.28-18.45,12.44-20.73,59.05-14.75,151.18-32.71,254.72-34.44,125.01-2.1,234.93,19.83,326.73,65.15,239.09,118.04,552.1,59.16,612.42,46.15,9.22-1.99,18.33,3.88,20.32,13.11,1.99,9.23-3.88,18.33-13.11,20.32-36.11,7.78-132.87,26.01-251.09,27.17-4.02.04-8.05.06-12.04.06Z"/>
            </g>
          </g>
          <path class="cls-24" d="m1155.11,754.32c0,12.74-250.79,23.06-560.16,23.06s-560.16-10.32-560.16-23.06,250.79-23.06,560.16-23.06,560.16,10.32,560.16,23.06Z"/>
          <path class="cls-1" d="m691.36,98.18c-31.57,5.94-61.38,15.72-89.07,28.74-35.32,16.61-76.13,15.12-111.56-1.22-51.68-23.83-111.79-30.55-171.67-14.55-127.85,34.18-208.49,163.48-183.12,293.37,21.81,111.64,113.23,191.06,219.63,203.39,40.58,4.7,77.06,26.65,100.19,60.32,82.3,119.79,231.67,184.21,382.37,151.1,204.8-45,331.96-252.49,275.8-457.28-50.34-183.57-235.5-299.06-422.56-263.86Z"/>
          <g>
            <g>
              <path class="cls-22" d="m502.33,663.89c4.27-4.72,4.72-8.81,6.29-16.67,1.57-7.86,5.66-14.78,14.47-19.5,8.81-4.72,8.49-15.1,19.5-17.3,11.01-2.2,14.78,1.42,21.07-2.28,6.29-3.7,16.67-3.38,20.45,2.28,3.77,5.66.94,14.15-2.83,18.24s-4.4,9.12-7.23,16.04c-2.83,6.92-11.32,9.75-16.36,13.84-5.03,4.09-8.18,14.47-15.41,17.62-7.23,3.15-12.01.94-16.07,6.29-4.06,5.35-12.87,9.38-12.87,9.38h-28.31s6.43-15.92,17.3-27.94Z"/>
              <path class="cls-35" d="m513.2,691.83c12.14-27.06,12.75-40.75,12.75-52.78,0-6.97,1.35-11.63,3.2-16.81-1.56,2.09-3.39,4.04-6.06,5.47-8.81,4.72-12.9,11.64-14.47,19.5-1.57,7.86-2.02,11.95-6.29,16.67-10.87,12.02-17.3,27.94-17.3,27.94h28.17Z"/>
              <path class="cls-8" d="m572.16,618.37c-5.03,4.95-9.12,5.89-15.1,10.29s-9.75,10.38-14.78,15.73c-5.03,5.35-10.75,7.86-16.07,13.21-5.32,5.35-9.02,10.91-14.75,15.73-5.73,4.81-11.01,7.86-11.01,7.86"/>
              <path class="cls-22" d="m477.48,659.49s-3.46-4.05-6.61-8.47c-3.15-4.42-4.18-10.63-7.23-16.06-3.05-5.44-3.19-4.72-8.36-11.32-5.17-6.61-6.11-12.27-9.57-17.93-3.46-5.66-8.51-3.47-12.58-10.38-4.07-6.91-9.02-12.06-15.52-10.59-6.5,1.47-12.79,2.73-8.39,20.97,4.4,18.24,5.03,14.78,5.35,28.31.31,13.53,10.07,15.73,16.67,25.48,6.61,9.75,5.35,14.47,15.73,19.19s18.24,13.15,18.24,13.15h12.27v-32.34Z"/>
              <path class="cls-35" d="m463.64,634.96c-3.05-5.44-3.19-4.72-8.36-11.32-2.37-3.02-3.83-5.85-5.08-8.56-.35,2.21-1.45,4.77-3.61,8.24-6.92,11.15,10.07,35.4,8.18,44.32-.83,3.92-.93,9.71-.78,14.98,6.7,4.4,11.21,9.23,11.21,9.23h12.27v-32.34s-3.46-4.05-6.61-8.47c-3.15-4.42-4.18-10.63-7.23-16.06Z"/>
              <path class="cls-8" d="m420.44,595.64s1.93,8.49,7.78,18.24c5.85,9.75,5.85,11.64,9.94,20.45,4.09,8.81,8.18,14.15,13.84,20.45,5.66,6.29,21.07,21.39,23.28,23.59"/>
              <path class="cls-22" d="m470.25,691.83s-1.89-18.61,0-27.52c1.89-8.91-15.1-33.17-8.18-44.32,6.92-11.15,2.96-12.94-1.67-23.68-4.62-10.74-7.96-27.1,0-39.68s-7.49-23.16-4.8-40.21c2.69-17.04,27.86-40.63,27.86-40.63,0,0,20.76,7.23,23.91,19.19,3.15,11.95-1.89,30.2,8.81,39.63,10.7,9.44,11.32,19.5,8.81,33.97-2.52,14.47,1.26,20.66-2.52,34.86-3.77,14.21-8.18,19.24-8.18,31.82s-.63,26.94-14.47,56.56h-29.57Z"/>
              <path class="cls-8" d="m489.48,498.15c-1.89,5.35-3.46,5.66-1.89,16.36s2.19,16.36.62,22.33c-1.57,5.98,6.4,20.76,6.35,28.94-.05,8.18-3.47,15.73-3.81,23.59-.33,7.86,4.18,17.3,3.81,29.25-.37,11.95-5.03,15.1-3.8,23.59,1.23,8.49-1.93,40.8-3.82,49.61"/>
            </g>
            <path class="cls-35" d="m448.6,686.14h83.94v64.76c0,5.96-4.84,10.8-10.8,10.8h-62.34c-5.96,0-10.8-4.84-10.8-10.8v-64.76h0Z"/>
          </g>
          <g>
            <g>
              <g>
                <path class="cls-33" d="m950.61,594.46v127.22c0,9.41,6.24,17.05,13.94,17.05h32.28c7.68,0,13.92-7.64,13.92-17.05v-127.22h-60.14Z"/>
                <path class="cls-33" d="m967.36,594.46v127.22c0,9.41,6.24,17.05,13.94,17.05h15.53c7.68,0,13.92-7.64,13.92-17.05v-127.22h-43.38Z"/>
              </g>
              <g>
                <path class="cls-33" d="m657.49,594.46v127.22c0,9.41-6.24,17.05-13.94,17.05h-32.28c-7.68,0-13.92-7.64-13.92-17.05v-127.22h60.14Z"/>
                <path class="cls-33" d="m640.74,594.46v127.22c0,9.41-6.24,17.05-13.94,17.05h-15.53c-7.68,0-13.92-7.64-13.92-17.05v-127.22h43.38Z"/>
              </g>
              <g>
                <path class="cls-32" d="m989.97,617.1v127.52c0,9.43,7.66,17.09,17.11,17.09h39.64c9.43,0,17.09-7.66,17.09-17.09v-127.52h-73.85Z"/>
                <path class="cls-33" d="m1010.54,617.1v127.52c0,9.43,7.66,17.09,17.11,17.09h19.07c9.43,0,17.09-7.66,17.09-17.09v-127.52h-53.28Z"/>
              </g>
              <g>
                <path class="cls-32" d="m618.95,617.1v127.52c0,9.43-7.66,17.09-17.11,17.09h-39.64c-9.43,0-17.09-7.66-17.09-17.09v-127.52h73.85Z"/>
                <path class="cls-33" d="m598.38,617.1v127.52c0,9.43-7.66,17.09-17.11,17.09h-19.07c-9.43,0-17.09-7.66-17.09-17.09v-127.52h53.28Z"/>
              </g>
            </g>
            <path class="cls-28" d="m555.28,696.92l44.75,11.42c3.27.83,6.63,1.26,10,1.26h396.12c4.01,0,8-.6,11.83-1.77l35.66-10.9-101.14-54.37h-350.87l-46.36,54.37Z"/>
            <path class="cls-18" d="m1070.12,624.84s-2.06,45.31-16.48,72.08c0,0-39.13-14.42-55.6-14.42s-193.58-2.06-193.58-2.06c0,0-1.46.02-4.12.06-26.69.29-174.49,2-189.46,2-16.48,0-55.6,14.42-55.6,14.42-7-12.99-11.08-30.33-13.43-44.75-1.89-11.57-2.68-21.27-2.92-25.31-.08-1.3-.12-2.02-.12-2.02,1.13-82.52,12.36-125.47,16.48-131.65,4.12-6.18,24.71-37.22,24.71-37.22,13.62-34.51,25.64-58.2,34.82-73.91,10.03-17.16,27.46-28.66,47.19-31.06,68.24-8.3,142.46-8.3,142.46-8.3,0,0,74.22,0,142.46,8.3,19.73,2.4,37.16,13.9,47.19,31.06,9.18,15.71,21.2,39.4,34.82,73.91,0,0,17.99,19.5,22.11,25.68,4.12,6.18,12.78,60.29,19.08,143.19Z"/>
            <path class="cls-18" d="m1028.93,455.97c-220.35,4.12-448.94,0-448.94,0,13.62-34.51,25.64-58.2,34.82-73.91,10.03-17.16,27.46-28.66,47.19-31.06,68.24-8.3,142.46-8.3,142.46-8.3,0,0,74.22,0,142.46,8.3,19.73,2.4,37.16,13.9,47.19,31.06,9.18,15.71,21.2,39.4,34.82,73.91Z"/>
            <g>
              <path class="cls-32" d="m968.83,379.45l3.73,33c.86,7.63-2.62,13.34-9.24,14.99-56.73,14.14-158.85,11.87-158.85,11.87,0,0-102.12,2.27-158.85-11.87-6.62-1.65-10.11-7.36-9.24-14.99l3.73-33c.86-7.6,10.1-15.52,18.11-15.86,23.35-.98,71.59-2.51,146.25-2.51s122.9,1.53,146.25,2.51c8.01.34,17.25,8.26,18.11,15.86Z"/>
              <path class="cls-25" d="m951,378.15l2.26,30.33c.52,6.95-2.74,12.13-8.64,13.63-50.33,12.78-140.15,10.73-140.15,10.73,0,0-89.83,2.05-140.15-10.73-5.9-1.5-9.16-6.68-8.64-13.63l2.26-30.33c.52-7.04,8.54-14.42,15.69-14.73,20.87-.92,64.01-2.34,130.84-2.34s109.97,1.43,130.84,2.34c7.16.31,15.17,7.69,15.69,14.73Z"/>
            </g>
            <path class="cls-18" d="m1070,626.85c-.61,9.09-3.75,46.66-16.36,70.07,0,0-39.11-14.41-55.6-14.41-13.83,0-141.14-1.47-181.42-1.9-43.44.43-191.88,1.9-205.74,1.9-16.47,0-55.6,14.41-55.6,14.41-12.59-23.41-15.76-60.97-16.34-70.07,2-.58,29.31-8.28,45.17-10.26,3.7-.46,15.93-1.01,33.13-1.6,55.02-1.82,160.7-3.77,199.46-2.81,35.97-.94,125.41.91,174.99,2.68,16.92.63,29.21,1.24,33.13,1.72,15.86,1.98,43.16,9.68,45.19,10.26Z"/>
            <g>
              <path class="cls-28" d="m895.19,515.11v23.43c0,8.92-6.84,16.16-15.27,16.16h-150.92c-2.38,0-4.61-.56-6.61-1.62-5.14-2.58-8.66-8.13-8.66-14.54v-23.43h181.47Z"/>
              <path class="cls-28" d="m895.19,521.14v17.4c0,8.92-6.84,16.16-15.27,16.16h-150.92c-2.38,0-4.61-.56-6.61-1.62-1.47-2.46-2.33-5.37-2.33-8.51v-23.43h175.14Z"/>
              <path class="cls-25" d="m730.01,515.11h148.91v14.48c0,9.7-7.87,17.57-17.57,17.57h-113.78c-9.7,0-17.57-7.87-17.57-17.57v-14.48h0Z"/>
            </g>
            <path class="cls-21" d="m621.01,658.21h38.02c5.59,0,10.13,4.54,10.13,10.13v14.16h-58.28v-14.16c0-5.59,4.54-10.13,10.13-10.13Z"/>
            <path class="cls-21" d="m950.73,658.21h38.02c5.59,0,10.13,4.54,10.13,10.13v14.16h-58.28v-14.16c0-5.59,4.54-10.13,10.13-10.13Z"/>
            <path class="cls-33" d="m991.68,614.87v2.03c0,7.47-6.05,13.53-13.53,13.53h-347.37c-7.47,0-13.55-6.05-13.55-13.53v-1.9c55.02-1.82,160.7-3.77,199.46-2.81,35.97-.94,125.41.91,174.99,2.68Z"/>
            <path class="cls-28" d="m937.19,480.55c0,6.98-59.42,12.64-132.72,12.64s-132.72-5.66-132.72-12.64,59.42-4.21,132.72-4.21,132.72-2.77,132.72,4.21Z"/>
            <path class="cls-28" d="m681.37,573.63h-56.64c-15.48,0-29.43-9.27-35.44-23.53l-9.75-23.2h35.97l1.44,6.28h31.11l8,22.57c3.77,10.72,13.93,17.88,25.31,17.88Z"/>
            <path class="cls-28" d="m910.59,573.63h56.64c15.48,0,29.43-9.27,35.44-23.53l9.75-23.2h-35.97l-1.44,6.28h-31.11l-8,22.57c-3.77,10.72-13.93,17.88-25.31,17.88Z"/>
            <path class="cls-33" d="m927.56,575.15h-246.19c-12.01,0-22.76-7.6-26.74-18.9l-7.64-21.55h-31.24l-18.03-78.16,2.97-.68,17.49,75.8h30.97l8.36,23.58c3.55,10.09,13.15,16.87,23.87,16.87h246.19c10.7,0,20.29-6.78,23.87-16.87l8.36-23.58h31.04l23.78-75.91,2.91.91-24.45,78.05h-31.12l-7.64,21.56c-4.01,11.3-14.76,18.9-26.74,18.9Z"/>
            <g>
              <g>
                <path class="cls-21" d="m577.75,488.67l-.85.54c-1.01.64-1.84,1.49-2.44,2.5-.87,1.41-1.26,3.12-1.06,4.84l2.56,21.82c.56,4.74,3.06,8.83,6.64,11.5,2.81,2.09,6.27,3.31,9.99,3.31h55.49l-12.6-37.04-3.82-11.24-39.27-3.25c-1.61.1-3.18.6-4.55,1.45l-10.07,5.56h0Z"/>
                <polygon class="cls-21" points="635.46 496.14 693.14 507.06 701.19 533.18 648.06 533.18 635.46 496.14"/>
                <path class="cls-39" d="m693.14,507.06l-1.09-3.05c-1.25-3.5-4.19-6.12-7.81-6.96l-52.6-12.15,3.82,11.24,57.68,10.92Z"/>
              </g>
              <g>
                <path class="cls-21" d="m1031.82,488.67l-10.07-5.56c-1.37-.85-2.94-1.36-4.55-1.45l-39.27,3.25-3.82,11.24-12.6,37.04h55.49c3.72,0,7.18-1.22,9.99-3.31,3.58-2.67,6.08-6.76,6.64-11.5l2.56-21.82c.19-1.72-.19-3.43-1.06-4.84-.6-1.01-1.43-1.86-2.44-2.5l-.85-.54h0Z"/>
                <polygon class="cls-21" points="974.11 496.14 916.43 507.06 908.38 533.18 961.5 533.18 974.11 496.14"/>
                <path class="cls-38" d="m916.43,507.06l1.09-3.05c1.25-3.5,4.19-6.12,7.81-6.96l52.6-12.15-3.82,11.24-57.68,10.92Z"/>
              </g>
            </g>
            <path class="cls-28" d="m782.49,342.7s14.45-19.56,22.27-19.56,21.67,19.56,21.67,19.56c0,0-22.27,10.53-43.94,0Z"/>
          </g>
          <g>
            <g>
              <path class="cls-29" d="m92.98,666.56l-48.44,14.06s-16.23,10.99-23.97,13.45c0,0-16.32,15.23-19.25,14.19-2.93-1.04-1.24-11.8,7.39-22.44,5.62-6.93,11.77-15.09,15.37-19.94,1.79-2.41,5.1-3.09,7.7-1.58l5.89,3.43s2.73-.15,7.01-2.77c4.28-2.62,42.75-24.62,42.75-24.62l5.56,26.21Z"/>
              <path class="cls-29" d="m375.66,664.01l24.3,51.86s15.19,16.27,19.31,24.52c0,0,19.96,15.62,19.31,19.1-.65,3.47-13.02,3.47-26.47-4.34-8.76-5.09-19-10.54-25.07-13.73-3.02-1.58-4.36-5.18-3.13-8.35l2.81-7.21s-.65-3.04-4.34-7.38c-3.69-4.34-35.15-43.61-35.15-43.61l28.43-10.85Z"/>
              <path class="cls-33" d="m438.59,759.48c.65-3.47-19.31-19.1-19.31-19.1-.87-1.73-2.24-3.83-3.84-6.05-14.38,1.3-28.71-8.49-28.71-8.49l-2.81,7.21c-1.24,3.18.11,6.77,3.13,8.35,6.07,3.19,16.31,8.64,25.07,13.73,13.45,7.81,25.82,7.81,26.47,4.34Z"/>
              <path class="cls-19" d="m261.52,415.7s3.18,1.45,2.89,6.08-2.31,3.43-4.63,8.51c-2.31,5.09-6.36,28.52-6.36,28.52,0,0,43.87,49.08,63.07,73.2,29.48,37.03,62.49,134.24,62.49,134.24,0,0-6.8,7.52-18.08,10.99-11.28,3.47-17.36,2.17-24.74,6.94-7.38,4.77-16.93,6.08-16.93,6.08,0,0-12.59-16.49-24.74-32.98-12.15-16.49-41.08-74.21-41.08-74.21l-24.45-11.72s-12.59,34.72-25.6,57.72c-13.02,23-57.28,44.27-72.91,52.94-15.62,8.68-45.57,15.19-45.57,15.19,0,0-6.94-9.55-4.34-20.83,2.6-11.28-1.6-23-.58-32.11,0,0,34-25.17,40.51-32.55,6.51-7.38,7.38-15.62,14.76-16.49,0,0,16.49-47.3,16.49-61.19s-2.74-29.06-.57-53.37c2.17-24.3,15.98-45.15,15.98-45.15,0,0-7.16-4.88,0-9.17,7.16-4.29,94.39-10.65,94.39-10.65Z"/>
              <path class="cls-23" d="m253.42,459.76c-.12,0-.24-.02-.36-.07-.29-.12-7.05-2.94-11.1-5.26-3.87-2.22-10.65-3.64-10.72-3.66-.51-.11-.84-.61-.74-1.12.11-.51.63-.83,1.12-.73.29.06,7.14,1.5,11.27,3.87,3.95,2.26,10.82,5.13,10.89,5.15.48.2.71.76.51,1.24-.15.36-.5.58-.87.58Z"/>
              <path class="cls-23" d="m151.43,478.38c-.09.76-.2,1.52-.27,2.29-2.17,24.3.57,39.48.57,53.37s-16.49,61.19-16.49,61.19c-7.38.87-8.25,9.11-14.76,16.49-5.49,6.23-30.56,25.12-38.26,30.87,0,0,20.46-.93,34.79-12.21,14.32-11.28,17.36-16.06,30.81-19.53,13.45-3.47,38.62-7.81,38.62-7.81,8.68-16.49,42.53-31.68,42.53-31.68-15.19-7.38-39.49-29.51-52.95-40.79-13.43-11.26-26.13-26.92-24.6-52.18Z"/>
              <path class="cls-23" d="m184.71,620.47c-.08,0-.16-.01-.23-.03-17.13-4.34-29.34-13.75-29.46-13.84-.41-.32-.48-.92-.16-1.33.32-.41.91-.49,1.33-.17.12.09,12.03,9.26,28.76,13.5.5.13.81.64.68,1.15-.11.43-.49.71-.92.71Z"/>
              <path class="cls-23" d="m171.47,627.92c-2.27,0-5.44-2.48-6.45-3.33-.4-.34-.45-.93-.12-1.33.34-.4.94-.45,1.33-.12,1.91,1.59,4.6,3.19,5.43,2.86.03-.01.13-.05.18-.36.31-1.66-6.9-6.65-13.83-10.27-.46-.24-.64-.81-.4-1.28.24-.47.82-.65,1.28-.4,3.66,1.91,15.54,8.44,14.82,12.3-.23,1.2-.98,1.64-1.41,1.79-.26.09-.54.13-.83.13Z"/>
              <path class="cls-23" d="m164.53,636.53c-.3,0-.61-.15-.79-.43l-13.89-21.05c-.29-.44-.17-1.02.27-1.31.43-.29,1.02-.17,1.31.27l13.89,21.05c.29.44.17,1.02-.27,1.31-.16.11-.34.16-.52.16Z"/>
              <path class="cls-23" d="m255.45,580.4c-.23,0-.45-.08-.63-.24-.39-.35-.42-.95-.07-1.34,7.26-8.04,24.41-26.64,27.9-26.64.03,0,.05,0,.08,0,.62.06,1.1.39,1.31.93.92,2.27-4.92,9.62-8.49,13.79-.34.39-.94.45-1.33.11-.4-.34-.45-.94-.11-1.33,3.71-4.35,7.59-9.67,8.11-11.49-2.89,1.35-15.24,13.9-26.07,25.9-.19.21-.44.31-.7.31Z"/>
              <path class="cls-23" d="m260.66,582.43c-.41,0-.78-.26-.91-.67-.15-.5.14-1.03.64-1.18.83-.25,20.42-6.11,27.39-6.69,6.67-.56,10.92-2.5,10.96-2.52.46-.22,1.04-.02,1.26.46.22.47.02,1.04-.46,1.26-.18.09-4.57,2.1-11.6,2.69-6.77.56-26.8,6.56-27,6.62-.09.03-.18.04-.27.04Z"/>
              <path class="cls-23" d="m250.53,573.17c-.49,0-.91-.38-.95-.88-.02-.36-.55-8.75,5.35-12.6,5.29-3.46,10.71-10.53,10.76-10.61.32-.42.91-.5,1.32-.18.42.32.5.91.18,1.33-.23.3-5.66,7.41-11.23,11.05-4.98,3.25-4.5,10.81-4.49,10.88.04.52-.36.98-.88,1.01-.02,0-.05,0-.07,0Z"/>
              <path class="cls-23" d="m262.41,426.35c1.07-1.14,1.84-1.87,2.01-4.57.29-4.63-2.89-6.08-2.89-6.08,0,0-87.23,6.36-94.39,10.65-7.16,4.29,0,9.17,0,9.17,0,0-8.81,13.33-13.46,31.09,16.7,21.08,64.24-23.5,75.3-29.79,11.07-6.29,19.75-.87,33.43-10.47Z"/>
              <path class="cls-29" d="m79.87,429.11s-23.11,20.06-26.32,22.42-14.55,3.85-16.69,7.27c-2.14,3.42,2.14,9.41,2.57,13.91.43,4.49,9.2,0,9.2,0,0,0,6.46.64,9.44-2.35,2.97-3,4.68-10.27,4.68-10.27l29.31-18.61s-.86-14.02-12.2-12.36Z"/>
              <path class="cls-33" d="m183.83,388.78l-1.71-.27c.12-.74,3-18.22,14.81-29.14l1.18,1.27c-11.37,10.53-14.25,27.97-14.27,28.14Z"/>
              <path class="cls-19" d="m87.42,419.51l-9.7,9.79s2.78,8.69,12.6,16.64l10.47-6.98s-3.83-21.29-13.37-19.45Z"/>
              <path class="cls-18" d="m192.63,322.47c13.53-5.38,31.32-22.95,56.07-24.3,24.74-1.35,47.33,8.46,62.09,21.7,14.76,13.24,30.6,23.51,34.72,28.57,4.12,5.06,11.72,5.93,12.8,9.84,1.09,3.91,8.03-.22,9.76,1.74,1.74,1.95,17.14-1.95,24.52,2.6,0,0,12.37,19.31,9.11,26.04-3.25,6.73-11.72,24.3-30.81,24.95-19.09.65-18.23-3.04-27.34-6.94-9.11-3.91-24.95-7.16-32.33-16.27-7.38-9.11-27.12-15.41-28.64-18.88,0,0-10.42,15.62-12.15,25.71-1.74,10.09,3.97,14-6.58,20.07-10.56,6.08-39.85,11.93-60.68,13.45-20.83,1.52-33.52,3.04-38.89-4.12-5.37-7.16,2.87-16.49,2.87-16.49,0,0,1.52-27.34,8.46-35.8,6.94-8.46,8.57-48.5,17.03-51.86Z"/>
              <path class="cls-33" d="m268.94,348.89l-.15-.04c-10.04-2.76-13.85-9.05-14-9.31l-.2-.33.3-.24c.06-.04,5.85-4.58,4.61-12.46-.26-1.64-1.01-2.82-2.24-3.5-3.78-2.09-10.83.9-10.89.94l-.32.14-.2-.28c-7.4-10.01-5.02-24.49-5-24.63l.85.15c-.02.14-2.3,14,4.64,23.7,1.49-.59,7.63-2.82,11.34-.77,1.48.81,2.38,2.2,2.69,4.12,1.15,7.3-3.38,11.91-4.63,13.02.89,1.27,4.79,6.23,13.13,8.57,1.27-.59,10.63-5.02,13.25-8.51-1.08-1.53-6.21-9.22-2.97-12.73,2.77-3.02,5.96-2.8,7.21-2.56.04-2.29-.27-11.85-7.89-20.89l.66-.56c8.93,10.58,8.08,21.92,8.08,22.03l-.05.54-.52-.17c-.15-.05-3.76-1.16-6.85,2.19-3.05,3.31,3.15,11.8,3.21,11.89l.18.25-.17.25c-2.64,3.96-13.46,8.91-13.92,9.12l-.14.07Z"/>
              <path class="cls-19" d="m395.29,358.59s-8.99,1.66-11.12,4.5c-2.13,2.84-6.63,9.7,0,20.11,6.63,10.41,14.2,8.99,16.56,7.34,2.37-1.66,8.99-8.52,5.92-17.75-3.08-9.23-5.44-14.2-11.36-14.2Z"/>
              <path class="cls-27" d="m334,395.3c-3.62-8.25-3.76-11.54-10.27-16.48-6.51-4.93-14.03-8.26-16.06-23.02-2.03-14.76-9.95-33.43-10.42-27.92-.64,7.55-.45,11.97-.88,21.81-.43,9.84-11.56,15.51-13.8,21.81,1.52,3.47,21.26,9.76,28.64,18.88,7.38,9.11,23.22,12.37,32.33,16.27.9.39,1.69.77,2.42,1.15h0s-8.36-4.26-11.98-12.5Z"/>
              <path class="cls-33" d="m350.2,376.81c-.29-6.12.85-10.47,3.4-12.93,2.26-2.18,4.77-2,4.88-1.99l-.07.86s-2.26-.15-4.22,1.76c-2.32,2.25-3.39,6.48-3.12,12.25l-.87.04Z"/>
              <path class="cls-33" d="m339.51,367.39c-.42,0-.81-.07-1.16-.25-.7-.36-1.09-1.06-1.17-2.08-.23-3.08,2.58-3.36,5.82-3.68,1.52-.15,3.24-.32,4.91-.78,4.77-1.32,5.34-2.74,5.35-2.75l.83.25c-.05.19-.65,1.87-5.95,3.34-1.73.48-3.5.66-5.05.81-3.42.34-5.2.61-5.04,2.75.05.71.28,1.16.69,1.37,1.13.58,3.48-.59,4.28-1.09l.46.74c-.27.17-2.28,1.38-3.97,1.38Z"/>
              <path class="cls-29" d="m392.58,362.61s45.71-25.17,47.3-27.05c1.59-1.88.29-10.42,5.35-12.73,5.06-2.31,6.51.14,7.09,6.65.58,6.51-6.37,14.18-6.37,14.18,0,0-37.32,33.99-41.52,38.77-4.2,4.77-9.98.87-13.89-5.64-3.91-6.51-3.14-10.51,2.03-14.18Z"/>
              <path class="cls-34" d="m443.47,338.42v-.87c.72,0,1.32-.25,1.85-.78,1.82-1.82,1.83-6.12,1.83-6.17v-1.94s.83,1.75.83,1.75c0,.01.5,1.05,1.32,1.41.22-.24.28-2.42-.58-4.42-.46-1.08-1.08-1.1-1.87-1.14-.63-.03-1.34-.06-1.87-.71l.67-.55c.27.33.63.36,1.24.39.82.04,1.95.09,2.63,1.67.78,1.82,1.09,4.64.31,5.41-.23.24-.57.29-.89.15-.4-.18-.73-.45-1-.74-.15,1.54-.6,4.09-2.01,5.5-.68.68-1.51,1.03-2.46,1.03Z"/>
              <path class="cls-33" d="m234.68,426.62l-.68-.54c6.16-7.89,7.88-17.29,9.69-27.24.62-3.38,1.26-6.88,2.08-10.3,2-8.27,5.81-10.2,9.85-12.24,2.59-1.31,5.26-2.66,7.89-5.73,4.7-5.49,4.65-10.18,4.6-15.15-.02-2.25-.05-4.58.36-7.06l.85.14c-.39,2.41-.37,4.7-.35,6.91.05,5.14.1,9.99-4.81,15.73-2.74,3.2-5.62,4.65-8.16,5.94-4.02,2.03-7.49,3.79-9.39,11.67-.82,3.39-1.46,6.88-2.07,10.25-1.83,10.06-3.57,19.56-9.86,27.62Z"/>
              <path class="cls-27" d="m211.4,381.92c8.25-8.68,23.43-14.76,26.91-26.47,3.47-11.72.22-11.72-1.09-22.35-1.3-10.63-5.64-9.55-14.37-12.73l-39.39,26.53c-2.3,11.36-4.43,23.24-7.86,27.42-6.94,8.46-8.46,35.8-8.46,35.8,0,0-8.25,9.33-2.87,16.49,1.24,1.66,2.89,2.83,4.93,3.67,20.15.24,34.57-40.33,42.21-48.37Z"/>
              <path class="cls-33" d="m1.33,708.27c2.93,1.04,19.25-14.19,19.25-14.19,1.63-.52,3.64-1.42,5.78-2.51.83-12.69,11.31-23.82,11.31-23.82l-5.89-3.43c-2.59-1.51-5.91-.83-7.7,1.58-3.6,4.85-9.75,13.01-15.37,19.94-8.63,10.64-10.32,21.4-7.39,22.44Z"/>
              <path class="cls-33" d="m292.34,243.92c10.85.07,13.74,2.39,14.32,7.74.58,5.35-2.6,7.38-2.03,11.28.58,3.91,5.06,7.52,5.21,14.03.14,6.51,8.25,15.04,5.35,25.89,0,0-3.47-.29-9.98,1.88-6.51,2.17-9.98.87-15.91,0-5.93-.87-16.08-2.94-18.32-2.59-2.24.35-13.72-2.19-13.25-13.04.47-10.85,34.61-45.21,34.61-45.21Z"/>
              <path class="cls-29" d="m287.56,248.48c6.16,2.9,6.29,8.25,6.73,12.8.43,4.56,2.6,9.11,6.94,9.76,0,0-1.52,5.42-1.74,9.76-.22,4.34,1.08,7.6-2.17,9.33-3.25,1.74-13.45,3.25-13.45,3.25l-8.68,18.23s3.49,18.45-4.77,30.38c-1.95,2.82-1.09-11.93-2.6-18.01-1.52-6.08-12.15-16.71-17.14-24.09-4.99-7.38.22-32.98,7.05-40.14,6.83-7.16,18.77-16.49,29.83-11.28Z"/>
              <path class="cls-32" d="m262.93,288.73s-3.33,7.23,12.26,22.89l8.68-18.23c-12.69,2.39-20.94-4.67-20.94-4.67Z"/>
              <path class="cls-33" d="m290.6,250.86c-7.08,2.2-12.37,1.74-13.02,11.07-.65,9.33,0,13.67-1.95,13.45-1.95-.22-2.6-5.42-5.64-7.38-3.04-1.95-5.42.65-5.86,5.21-.43,4.56,2.6,6.73,7.16,6.08l2.82,23s-.95-1.09-10.02,1.3c-9.07,2.39-13.2,5.86-21.87,1.08-8.68-4.77-7.59-3.91-16.06-4.34-8.46-.43-9.76-8.46-1.52-19.09,8.25-10.63,6.94-18.23,13.89-23,6.94-4.77-1.08-7.16,13.67-10.42,14.76-3.25,33.2-3.47,40.14-3.91,6.94-.43,3.98,5.17-1.74,6.94Z"/>
              <path class="cls-18" d="m85.07,421.37s1.56-20.57,20.65-37.06c19.09-16.49,33.42-21.26,47.74-33.42,14.32-12.15,41.66-36.89,62.06-32.98,20.4,3.91,22.57,24.3,14.32,38.19-8.25,13.89-40.79,32.11-47.3,40.36-6.51,8.25-20.83,12.59-20.83,12.59,0,0-21.43,25.11-30.81,27.77-19.09,5.42-33.42,2.6-33.42,2.6,0,0-8.01-6.24-12.41-18.05Z"/>
              <path class="cls-33" d="m162.8,404.44c-.06-.03-1.44-.8-1.78-2.8-.49-2.94,1.45-6.83,5.79-11.55l.64.59c-5.14,5.6-5.87,8.96-5.57,10.79.26,1.59,1.3,2.19,1.34,2.21l-.42.76Z"/>
              <rect class="cls-33" x="157.59" y="393.21" width=".87" height="14.1"/>
            </g>
            <g>
              <g class="cls-3">
                <circle class="cls-31" cx="525.35" cy="165.43" r="153.27"/>
              </g>
              <g>
                <rect class="cls-33" x="424.35" y="300.95" width="31.3" height="149.92" transform="translate(706.51 889.61) rotate(-157.93)"/>
                <path class="cls-22" d="m388.33,416.15h14.57c13.9,0,25.19,11.29,25.19,25.19v113.28h-64.95v-113.28c0-13.9,11.29-25.19,25.19-25.19Z" transform="translate(579.85 1083.85) rotate(-157.93)"/>
                <path class="cls-37" d="m463.22,318.65c-84.49-34.26-125.35-130.86-91.09-215.35h0c16.6-40.93,48.14-72.94,88.81-90.15,40.64-17.2,85.61-17.54,126.54-.95,40.93,16.6,72.94,48.14,90.15,88.81,17.21,40.67,17.54,85.61.95,126.54-19.03,46.93-57.3,80.4-102.04,95.01-35.81,11.69-75.76,11.31-113.31-3.92Zm7.67-281.98c-34.39,14.55-61.06,41.62-75.09,76.23h0c-28.97,71.44,5.59,153.12,77.02,182.09,71.44,28.97,153.13-5.59,182.09-77.02,14.04-34.61,13.75-72.61-.8-107-14.55-34.39-41.62-61.06-76.23-75.09-30.86-12.52-64.42-13.64-95.71-3.42-3.8,1.24-7.56,2.65-11.28,4.22Z"/>
              </g>
              <path class="cls-20" d="m422.88,135.08c2.98,16.15,5.96,32.3,8.94,48.46.84,4.56-.64,9.82-5.7,11.23-4.14,1.15-10.32-.79-11.23-5.7-2.98-16.15-5.96-32.3-8.94-48.46-.84-4.56.64-9.82,5.7-11.23,4.14-1.15,10.32.79,11.23,5.7h0Z"/>
              <path class="cls-20" d="m452.88,220.86c4.37,4.57,7.82,10.15,9.05,16.41.42,1.15.54,2.32.34,3.5,0,1.16-.29,2.26-.86,3.3-.99,1.95-3.04,3.84-5.18,4.43s-4.73.64-6.79-.52c-.63-.43-1.26-.85-1.88-1.28-1.2-1.07-2.05-2.37-2.55-3.89-.41-2.1-1.09-4.13-2.01-6.07.35.72.69,1.43,1.04,2.15-.98-2-2.2-3.86-3.65-5.54.5.58,1.01,1.16,1.51,1.74-.27-.31-.55-.61-.83-.91-.94-.77-1.61-1.71-2.03-2.82-.62-1.04-.94-2.18-.95-3.42-.1-2.14.72-4.76,2.24-6.33,1.63-1.68,3.84-2.98,6.24-2.98,2.21,0,4.74.58,6.33,2.24h0Z"/>
              <path class="cls-20" d="m384.34,479.98c-1.08,12.03-5.09,23.84-11.54,34.05-1.24,1.97-3.75,3.21-5.99,1.95-1.94-1.09-3.28-3.88-1.95-5.99,6.26-9.9,9.73-20.15,10.78-31.9.21-2.33,3.17-3.97,5.29-3.41,2.57.68,3.63,2.8,3.41,5.29h0Z"/>
            </g>
          </g>
        </g>
      </g>
    </g>
  </g>
</svg>