<?xml version="1.0" encoding="UTF-8"?>
<svg xmlns="http://www.w3.org/2000/svg" viewBox="0 0 707.74 438.76">
  <defs>
    <style>
      .cls-1 {
        fill: #787878;
      }

      .cls-1, .cls-2, .cls-3, .cls-4, .cls-5 {
        stroke-linejoin: round;
      }

      .cls-1, .cls-2, .cls-3, .cls-4, .cls-5, .cls-6 {
        stroke-linecap: round;
      }

      .cls-1, .cls-2, .cls-3, .cls-4, .cls-5, .cls-6, .cls-7, .cls-8, .cls-9, .cls-10 {
        stroke: #263238;
      }

      .cls-2, .cls-11, .cls-9 {
        fill: #263238;
      }

      .cls-3, .cls-7, .cls-12, .cls-13, .cls-14 {
        fill: #fff;
      }

      .cls-4, .cls-15 {
        fill: #92e3a9;
      }

      .cls-5, .cls-6, .cls-10 {
        fill: none;
      }

      .cls-6, .cls-7, .cls-8, .cls-9, .cls-10 {
        stroke-miterlimit: 10;
      }

      .cls-8 {
        fill: #b2b2b2;
      }

      .cls-12 {
        opacity: .58;
      }

      .cls-13 {
        opacity: .8;
      }

      .cls-14 {
        opacity: .31;
      }
    </style>
  </defs>
  <g id="Background_Simple" data-name="Background Simple">
    <g>
      <path class="cls-15" d="m666.68,335.31c17.26-31.96,19.81-68.47,15.76-103.71-3.59-31.26-9.01-67.12-24.17-95.33-38.4-71.48-135.47-105.02-214.29-83.53-32.87,8.96-55.93,29.75-82.33,49.52-19.51,14.62-40.93,28.9-66.14,31.82-60.39,7-129.12-50-186.39-45C51.85,94.08,7.07,145.08,4.99,189.08c-2.08,44,41.65,89,37.49,119-4.17,30-31.24,110,76.01,113s163.48-57,205.13-44c41.65,13,133.28,51,210.34,41,50.27-6.52,99.42-31.21,126.97-73.14,2.08-3.16,3.99-6.37,5.75-9.62Z"/>
      <path class="cls-13" d="m666.68,335.31c17.26-31.96,19.81-68.47,15.76-103.71-3.59-31.26-9.01-67.12-24.17-95.33-38.4-71.48-135.47-105.02-214.29-83.53-32.87,8.96-55.93,29.75-82.33,49.52-19.51,14.62-40.93,28.9-66.14,31.82-60.39,7-129.12-50-186.39-45C51.85,94.08,7.07,145.08,4.99,189.08c-2.08,44,41.65,89,37.49,119-4.17,30-31.24,110,76.01,113s163.48-57,205.13-44c41.65,13,133.28,51,210.34,41,50.27-6.52,99.42-31.21,126.97-73.14,2.08-3.16,3.99-6.37,5.75-9.62Z"/>
    </g>
  </g>
  <g id="Floor">
    <line class="cls-5" x1="1.72" y1="438.26" x2="700.9" y2="438.26"/>
  </g>
  <g id="Clouds">
    <path class="cls-6" d="m275.76,11.17s-3.26-8.7-10.88-10.33c-7.61-1.63-10.61,2.99-12.24,6.8-1.63,3.81-6.53.82-10.61.27s-6.26,3.54-7.07,6.53c-.82,2.99-5.98-1.36-10.61,1.36-4.62,2.72-5.44,6.26-6.53,7.07s-4.08-.54-5.71,1.63l-1.63,2.18h85.12s2.72-6.26-2.45-10.88c-5.17-4.62-14.14,2.45-17.41-4.62Z"/>
    <path class="cls-6" d="m510.74,19.22s-5.72-15.27-19.08-18.13c-13.36-2.86-18.61,5.25-21.47,11.93-2.86,6.68-11.45,1.43-18.61.48-7.16-.95-10.97,6.2-12.4,11.45-1.43,5.25-10.5-2.39-18.61,2.39-8.11,4.77-9.54,10.97-11.45,12.4-1.91,1.43-7.16-.95-10.02,2.86l-2.86,3.82h149.32s4.77-10.97-4.29-19.08c-9.06-8.11-24.81,4.29-30.53-8.11Z"/>
    <path class="cls-6" d="m128.84,45.1s-2.25-6-7.5-7.12c-5.25-1.12-7.31,2.06-8.44,4.69-1.12,2.62-4.5.56-7.31.19-2.81-.37-4.31,2.44-4.87,4.5-.56,2.06-4.12-.94-7.31.94-3.19,1.87-3.75,4.31-4.5,4.87-.75.56-2.81-.37-3.94,1.12l-1.12,1.5h58.67s1.87-4.31-1.69-7.5c-3.56-3.19-9.75,1.69-12-3.19Z"/>
    <path class="cls-6" d="m555.89,70.66s-2.25-6-7.5-7.12c-5.25-1.12-7.31,2.06-8.44,4.69-1.12,2.62-4.5.56-7.31.19-2.81-.38-4.31,2.44-4.87,4.5-.56,2.06-4.12-.94-7.31.94-3.19,1.87-3.75,4.31-4.5,4.87-.75.56-2.81-.37-3.94,1.12l-1.12,1.5h58.67s1.87-4.31-1.69-7.5c-3.56-3.19-9.75,1.69-12-3.19Z"/>
  </g>
  <g id="Buildings">
    <g>
      <polyline class="cls-6" points="46.57 271.21 76.15 271.21 76.15 181.54 102.2 181.54 102.2 139.64 151.49 139.64 151.49 222.7 164.17 222.7 164.17 61.61 218.39 61.61 218.39 132.29 252.19 132.29 252.19 71.28 309.93 71.28 309.93 208.73 388.8 208.73 388.8 126.6 440.31 126.6 440.31 209.47 471.89 209.47 471.89 219.02 491.6 219.02 491.6 154.94 504.98 154.94 504.98 219.02 514.14 219.02 514.14 151.4 528.93 151.4 528.93 216.08 547.23 216.08 547.23 107.3 580.33 107.3 580.33 178.6 599.34 178.6 599.34 72.02 645.82 72.02 645.82 287.38"/>
      <g>
        <rect class="cls-6" x="83.89" y="196.24" width="5.63" height="7.35"/>
        <rect class="cls-6" x="93.05" y="196.24" width="5.63" height="7.35"/>
        <rect class="cls-6" x="102.2" y="196.24" width="5.63" height="7.35"/>
        <rect class="cls-6" x="111.36" y="196.24" width="5.63" height="7.35"/>
        <rect class="cls-6" x="120.51" y="196.24" width="5.63" height="7.35"/>
        <rect class="cls-6" x="129.66" y="196.24" width="5.63" height="7.35"/>
      </g>
      <g>
        <rect class="cls-6" x="172.62" y="141.85" width="5.63" height="7.35"/>
        <rect class="cls-6" x="181.77" y="141.85" width="5.63" height="7.35"/>
        <rect class="cls-6" x="190.93" y="141.85" width="5.63" height="7.35"/>
        <rect class="cls-6" x="200.08" y="141.85" width="5.63" height="7.35"/>
        <rect class="cls-6" x="172.62" y="128.61" width="5.63" height="7.35"/>
        <rect class="cls-6" x="181.77" y="128.61" width="5.63" height="7.35"/>
        <rect class="cls-6" x="190.93" y="128.61" width="5.63" height="7.35"/>
        <rect class="cls-6" x="200.08" y="128.61" width="5.63" height="7.35"/>
        <rect class="cls-6" x="172.62" y="115.38" width="5.63" height="7.35"/>
        <rect class="cls-6" x="181.77" y="115.38" width="5.63" height="7.35"/>
        <rect class="cls-6" x="190.93" y="115.38" width="5.63" height="7.35"/>
        <rect class="cls-6" x="200.08" y="115.38" width="5.63" height="7.35"/>
        <rect class="cls-6" x="172.62" y="102.15" width="5.63" height="7.35"/>
        <rect class="cls-6" x="181.77" y="102.15" width="5.63" height="7.35"/>
        <rect class="cls-6" x="190.93" y="102.15" width="5.63" height="7.35"/>
        <rect class="cls-6" x="200.08" y="102.15" width="5.63" height="7.35"/>
        <rect class="cls-6" x="172.62" y="88.92" width="5.63" height="7.35"/>
        <rect class="cls-6" x="181.77" y="88.92" width="5.63" height="7.35"/>
        <rect class="cls-6" x="190.93" y="88.92" width="5.63" height="7.35"/>
        <rect class="cls-6" x="200.08" y="88.92" width="5.63" height="7.35"/>
        <rect class="cls-6" x="209.23" y="141.85" width="5.63" height="7.35"/>
        <rect class="cls-6" x="218.39" y="141.85" width="5.63" height="7.35"/>
      </g>
      <g>
        <rect class="cls-6" x="172.62" y="156.55" width="5.63" height="7.35"/>
        <rect class="cls-6" x="181.77" y="156.55" width="5.63" height="7.35"/>
        <rect class="cls-6" x="190.93" y="156.55" width="5.63" height="7.35"/>
        <rect class="cls-6" x="200.08" y="156.55" width="5.63" height="7.35"/>
        <rect class="cls-6" x="209.23" y="156.55" width="5.63" height="7.35"/>
        <rect class="cls-6" x="218.39" y="156.55" width="5.63" height="7.35"/>
      </g>
      <g>
        <rect class="cls-6" x="83.89" y="211.67" width="5.63" height="7.35"/>
        <rect class="cls-6" x="93.05" y="211.67" width="5.63" height="7.35"/>
        <rect class="cls-6" x="102.2" y="211.67" width="5.63" height="7.35"/>
        <rect class="cls-6" x="111.36" y="211.67" width="5.63" height="7.35"/>
        <rect class="cls-6" x="120.51" y="211.67" width="5.63" height="7.35"/>
        <rect class="cls-6" x="129.66" y="211.67" width="5.63" height="7.35"/>
      </g>
      <g>
        <rect class="cls-6" x="83.89" y="227.11" width="5.63" height="7.35"/>
        <rect class="cls-6" x="93.05" y="227.11" width="5.63" height="7.35"/>
        <rect class="cls-6" x="102.2" y="227.11" width="5.63" height="7.35"/>
        <rect class="cls-6" x="111.36" y="227.11" width="5.63" height="7.35"/>
        <rect class="cls-6" x="120.51" y="227.11" width="5.63" height="7.35"/>
        <rect class="cls-6" x="129.66" y="227.11" width="5.63" height="7.35"/>
      </g>
      <g>
        <rect class="cls-6" x="83.89" y="242.54" width="5.63" height="7.35"/>
        <rect class="cls-6" x="93.05" y="242.54" width="5.63" height="7.35"/>
        <rect class="cls-6" x="102.2" y="242.54" width="5.63" height="7.35"/>
        <rect class="cls-6" x="111.36" y="242.54" width="5.63" height="7.35"/>
        <rect class="cls-6" x="120.51" y="242.54" width="5.63" height="7.35"/>
        <rect class="cls-6" x="129.66" y="242.54" width="5.63" height="7.35"/>
      </g>
      <g>
        <rect class="cls-6" x="83.89" y="257.98" width="5.63" height="7.35"/>
        <rect class="cls-6" x="93.05" y="257.98" width="5.63" height="7.35"/>
        <rect class="cls-6" x="102.2" y="257.98" width="5.63" height="7.35"/>
        <rect class="cls-6" x="111.36" y="257.98" width="5.63" height="7.35"/>
        <rect class="cls-6" x="120.51" y="257.98" width="5.63" height="7.35"/>
        <rect class="cls-6" x="129.66" y="257.98" width="5.63" height="7.35"/>
      </g>
      <rect class="cls-6" x="616.95" y="87.45" width="5.63" height="7.35"/>
      <rect class="cls-6" x="626.1" y="87.45" width="5.63" height="7.35"/>
      <rect class="cls-6" x="635.25" y="87.45" width="5.63" height="7.35"/>
      <rect class="cls-6" x="616.95" y="105.83" width="5.63" height="7.35"/>
      <rect class="cls-6" x="626.1" y="105.83" width="5.63" height="7.35"/>
      <rect class="cls-6" x="635.25" y="105.83" width="5.63" height="7.35"/>
      <rect class="cls-6" x="616.95" y="124.2" width="5.63" height="7.35"/>
      <rect class="cls-6" x="626.1" y="124.2" width="5.63" height="7.35"/>
      <rect class="cls-6" x="635.25" y="124.2" width="5.63" height="7.35"/>
      <rect class="cls-6" x="616.95" y="142.58" width="5.63" height="7.35"/>
      <rect class="cls-6" x="626.1" y="142.58" width="5.63" height="7.35"/>
      <rect class="cls-6" x="635.25" y="142.58" width="5.63" height="7.35"/>
      <rect class="cls-6" x="616.95" y="160.96" width="5.63" height="7.35"/>
      <rect class="cls-6" x="626.1" y="160.96" width="5.63" height="7.35"/>
      <rect class="cls-6" x="635.25" y="160.96" width="5.63" height="7.35"/>
      <rect class="cls-6" x="616.95" y="179.33" width="5.63" height="7.35"/>
      <rect class="cls-6" x="626.1" y="179.33" width="5.63" height="7.35"/>
      <rect class="cls-6" x="635.25" y="179.33" width="5.63" height="7.35"/>
      <rect class="cls-6" x="616.95" y="197.71" width="5.63" height="7.35"/>
      <rect class="cls-6" x="626.1" y="197.71" width="5.63" height="7.35"/>
      <rect class="cls-6" x="635.25" y="197.71" width="5.63" height="7.35"/>
      <rect class="cls-6" x="616.95" y="216.08" width="5.63" height="7.35"/>
      <rect class="cls-6" x="626.1" y="216.08" width="5.63" height="7.35"/>
      <rect class="cls-6" x="635.25" y="216.08" width="5.63" height="7.35"/>
      <rect class="cls-6" x="616.95" y="234.46" width="5.63" height="7.35"/>
      <rect class="cls-6" x="626.1" y="234.46" width="5.63" height="7.35"/>
      <rect class="cls-6" x="557.01" y="124.2" width="5.63" height="7.35"/>
      <rect class="cls-6" x="566.17" y="124.2" width="5.63" height="7.35"/>
      <rect class="cls-6" x="557.01" y="142.58" width="5.63" height="7.35"/>
      <rect class="cls-6" x="566.17" y="142.58" width="5.63" height="7.35"/>
      <rect class="cls-6" x="557.01" y="160.96" width="5.63" height="7.35"/>
      <rect class="cls-6" x="566.17" y="160.96" width="5.63" height="7.35"/>
      <rect class="cls-6" x="557.01" y="179.33" width="5.63" height="7.35"/>
      <rect class="cls-6" x="566.17" y="179.33" width="5.63" height="7.35"/>
      <rect class="cls-6" x="557.01" y="197.71" width="5.63" height="7.35"/>
      <rect class="cls-6" x="566.17" y="197.71" width="5.63" height="7.35"/>
      <rect class="cls-6" x="557.01" y="216.08" width="5.63" height="7.35"/>
      <rect class="cls-6" x="566.17" y="216.08" width="5.63" height="7.35"/>
      <rect class="cls-6" x="557.01" y="234.46" width="5.63" height="7.35"/>
      <rect class="cls-6" x="566.17" y="234.46" width="5.63" height="7.35"/>
      <rect class="cls-6" x="395.68" y="142.58" width="5.63" height="7.35"/>
      <rect class="cls-6" x="404.83" y="142.58" width="5.63" height="7.35"/>
      <rect class="cls-6" x="395.68" y="160.96" width="5.63" height="7.35"/>
      <rect class="cls-6" x="404.83" y="160.96" width="5.63" height="7.35"/>
      <rect class="cls-6" x="395.68" y="179.33" width="5.63" height="7.35"/>
      <rect class="cls-6" x="404.83" y="179.33" width="5.63" height="7.35"/>
      <rect class="cls-6" x="395.68" y="197.71" width="5.63" height="7.35"/>
      <rect class="cls-6" x="404.83" y="197.71" width="5.63" height="7.35"/>
      <rect class="cls-6" x="395.68" y="216.08" width="5.63" height="7.35"/>
      <rect class="cls-6" x="404.83" y="216.08" width="5.63" height="7.35"/>
      <rect class="cls-6" x="395.68" y="234.46" width="5.63" height="7.35"/>
      <rect class="cls-6" x="404.83" y="234.46" width="5.63" height="7.35"/>
      <rect class="cls-6" x="416.41" y="142.58" width="5.63" height="7.35"/>
      <rect class="cls-6" x="425.56" y="142.58" width="5.63" height="7.35"/>
      <rect class="cls-6" x="416.41" y="160.96" width="5.63" height="7.35"/>
      <rect class="cls-6" x="425.56" y="160.96" width="5.63" height="7.35"/>
      <rect class="cls-6" x="416.41" y="179.33" width="5.63" height="7.35"/>
      <rect class="cls-6" x="425.56" y="179.33" width="5.63" height="7.35"/>
      <rect class="cls-6" x="416.41" y="197.71" width="5.63" height="7.35"/>
      <rect class="cls-6" x="425.56" y="197.71" width="5.63" height="7.35"/>
      <rect class="cls-6" x="416.41" y="216.08" width="5.63" height="7.35"/>
      <rect class="cls-6" x="425.56" y="216.08" width="5.63" height="7.35"/>
      <rect class="cls-6" x="416.41" y="234.46" width="5.63" height="7.35"/>
      <rect class="cls-6" x="425.56" y="234.46" width="5.63" height="7.35"/>
      <rect class="cls-6" x="272.51" y="87.45" width="5.63" height="7.35"/>
      <rect class="cls-6" x="281.67" y="87.45" width="5.63" height="7.35"/>
      <rect class="cls-6" x="272.51" y="105.83" width="5.63" height="7.35"/>
      <rect class="cls-6" x="281.67" y="105.83" width="5.63" height="7.35"/>
      <rect class="cls-6" x="272.51" y="124.2" width="5.63" height="7.35"/>
      <rect class="cls-6" x="281.67" y="124.2" width="5.63" height="7.35"/>
      <rect class="cls-6" x="272.51" y="142.58" width="5.63" height="7.35"/>
      <rect class="cls-6" x="281.67" y="142.58" width="5.63" height="7.35"/>
      <rect class="cls-6" x="272.51" y="160.96" width="5.63" height="7.35"/>
      <rect class="cls-6" x="281.67" y="160.96" width="5.63" height="7.35"/>
      <rect class="cls-6" x="272.51" y="179.33" width="5.63" height="7.35"/>
      <rect class="cls-6" x="281.67" y="179.33" width="5.63" height="7.35"/>
      <rect class="cls-6" x="272.51" y="197.71" width="5.63" height="7.35"/>
      <rect class="cls-6" x="281.67" y="197.71" width="5.63" height="7.35"/>
      <rect class="cls-6" x="272.51" y="216.08" width="5.63" height="7.35"/>
      <rect class="cls-6" x="281.67" y="216.08" width="5.63" height="7.35"/>
      <rect class="cls-6" x="272.51" y="234.46" width="5.63" height="7.35"/>
      <rect class="cls-6" x="281.67" y="234.46" width="5.63" height="7.35"/>
      <rect class="cls-6" x="635.25" y="234.46" width="5.63" height="7.35"/>
    </g>
  </g>
  <g id="Trees">
    <g>
      <path class="cls-15" d="m621.19,353.62c0,28.05-15.73,30.17-35.14,30.17s-35.14-2.12-35.14-30.17,15.73-86.69,35.14-86.69,35.14,58.64,35.14,86.69Z"/>
      <path class="cls-12" d="m621.19,353.62c0,28.05-15.73,30.17-35.14,30.17s-35.14-2.12-35.14-30.17,15.73-86.69,35.14-86.69,35.14,58.64,35.14,86.69Z"/>
      <polygon class="cls-11" points="597.93 366.35 592.12 366.75 607.26 356.55 596.45 362.01 597.93 357.74 592.99 363.76 587.19 366.69 586.73 346.54 589.8 339.09 586.66 343.28 586.39 331.6 596.02 318.76 586.32 328.69 585.74 302.98 585.22 319.44 579.04 312.55 585.12 322.6 584.3 348.66 578.92 345.14 574.02 336.46 575.98 343.23 566.37 336.94 584.18 352.3 581.48 437.85 588.82 437.85 587.27 370.02 588.96 368.88 597.93 366.35"/>
    </g>
    <g>
      <path class="cls-15" d="m707.74,302.41c0,45.11-25.3,48.52-56.5,48.52s-56.5-3.41-56.5-48.52,25.3-139.4,56.5-139.4,56.5,94.3,56.5,139.4Z"/>
      <path class="cls-14" d="m707.74,302.41c0,45.11-25.3,48.52-56.5,48.52s-56.5-3.41-56.5-48.52,25.3-139.4,56.5-139.4,56.5,94.3,56.5,139.4Z"/>
      <polygon class="cls-11" points="670.34 322.88 661 323.52 685.34 307.11 667.95 315.9 670.34 309.03 662.39 318.71 653.07 323.42 652.33 291.03 657.27 279.04 652.21 285.78 651.78 267 667.26 246.36 651.67 262.32 650.73 220.98 649.89 247.44 639.96 236.36 649.73 252.52 648.41 294.43 639.77 288.78 631.89 274.81 635.05 285.69 619.58 275.58 648.23 300.29 643.89 437.85 655.69 437.85 653.19 328.78 655.92 326.95 670.34 322.88"/>
    </g>
    <g>
      <path class="cls-15" d="m86.17,353.62c0,28.05,15.73,30.17,35.14,30.17s35.14-2.12,35.14-30.17-15.73-86.69-35.14-86.69-35.14,58.64-35.14,86.69Z"/>
      <path class="cls-12" d="m86.17,353.62c0,28.05,15.73,30.17,35.14,30.17s35.14-2.12,35.14-30.17-15.73-86.69-35.14-86.69-35.14,58.64-35.14,86.69Z"/>
      <polygon class="cls-11" points="109.43 366.35 115.24 366.75 100.1 356.55 110.91 362.01 109.43 357.74 114.37 363.76 120.17 366.69 120.63 346.54 117.56 339.09 120.7 343.28 120.97 331.6 111.34 318.76 121.03 328.69 121.62 302.98 122.14 319.44 128.32 312.55 122.24 322.6 123.06 348.66 128.44 345.14 133.34 336.46 131.37 343.23 140.99 336.94 123.18 352.3 125.87 437.85 118.54 437.85 120.09 370.02 118.4 368.88 109.43 366.35"/>
    </g>
    <g>
      <path class="cls-15" d="m0,302.86c0,44.96,25.21,48.35,56.31,48.35s56.31-3.39,56.31-48.35-25.21-138.94-56.31-138.94S0,257.9,0,302.86Z"/>
      <path class="cls-14" d="m0,302.86c0,44.96,25.21,48.35,56.31,48.35s56.31-3.39,56.31-48.35-25.21-138.94-56.31-138.94S0,257.9,0,302.86Z"/>
      <polygon class="cls-11" points="37.27 323.26 46.58 323.9 22.32 307.55 39.65 316.31 37.27 309.47 45.19 319.11 54.48 323.8 55.22 291.52 50.3 279.57 55.34 286.29 55.77 267.57 40.34 247 55.87 262.9 56.82 221.7 57.65 248.07 67.55 237.03 57.81 253.14 59.12 294.91 67.74 289.28 75.59 275.36 72.45 286.2 87.86 276.12 59.31 300.75 63.63 437.85 51.88 437.85 54.36 329.15 51.65 327.32 37.27 323.26"/>
    </g>
  </g>
  <g id="Characters">
    <g>
      <g>
        <g>
          <rect class="cls-2" x="333.99" y="179.68" width="38.79" height="15.61" rx="3.99" ry="3.99"/>
          <rect class="cls-2" x="350.07" y="172.11" width="3.78" height="11.83"/>
        </g>
        <path class="cls-2" d="m486.72,256.91l-13.57-10.52-18.9-69.86-31.46-3.88,13.61,50.56h-159.11l13.61-50.56-31.46,3.88-19.18,70.88-14.33,9.5h260.79Zm-60.06-80.39l23.71,1.72,15.16,62.22-22.27-17.27h-1.2l-15.4-46.68Zm-163.35,1.72l23.71-1.72-16.6,50.3.57.19-23.32,15.47,15.65-64.24Z"/>
      </g>
      <g>
        <path class="cls-1" d="m325.03,260.1l-2.34-33.27c-.55-7.9-7.13-14.03-15.05-14.03h-30.58c-7.92,0-14.5,6.13-15.05,14.03l-2.34,33.27h65.35Z"/>
        <path class="cls-1" d="m445.6,260.1l-2.34-33.27c-.55-7.9-7.13-14.03-15.05-14.03h-30.58c-7.92,0-14.5,6.13-15.05,14.03l-2.34,33.27h65.35Z"/>
      </g>
      <g>
        <g>
          <path class="cls-9" d="m284.63,188.21s-5.86-4.19-9.49-2.23c-3.63,1.95-11.17,23.18-12.29,27.92s5.86,8.66,10.61,10.05c4.75,1.4,14.24-1.68,16.47-3.91s-5.31-31.83-5.31-31.83Z"/>
          <path class="cls-8" d="m324.24,260.98c-.36-1.13-.57-1.83-.57-1.83,0,0-4.07-21.79-5.08-23.53-1.02-1.74-13.65-7.41-13.65-7.41l-21.93-1.16s-16.41,7.99-16.56,9.01c-.08.54-3.22,13.18-6.15,24.92h63.95Z"/>
          <path class="cls-10" d="m272.77,244.67c1.29,3.73,2.16,6.35,2.69,9.72"/>
          <path class="cls-10" d="m315.8,246.19c-.7,2.4-2.47,5.58-1.94,8.14"/>
        </g>
        <g>
          <path class="cls-9" d="m295.2,180.74s-13.05,3.63-16.68,10.64c-3.63,7.01-3.87,8.58-1.81,11.97,2.05,3.38,7.13,9.43,11.85,11.85,4.71,2.42,19.7-1.09,19.7-1.09,0,0,4.59-2.05,6.04-5.68,1.45-3.63,4.71-8.7,2.54-14.14-2.18-5.44-11.85-12.93-14.87-13.78-3.02-.85-6.77.24-6.77.24Z"/>
          <g>
            <path class="cls-7" d="m304.7,189.91s-6.51,4.01-9.85,6.34c-3.34,2.34-7.35,3.67-7.35,3.67,0,0-3,1.34-2.34,4.84.67,3.51,1.93,15.62,1.93,15.62l-2.27,4.92,9.68,10.68,7.68-10.02.83-5.18s7.01-4.34,7.18-5.34c.17-1,2.17-15.69,2-17.19-.17-1.5-7.51-8.35-7.51-8.35Z"/>
            <path class="cls-5" d="m305.84,200.2s-.36,3.26-.36,3.75,2.9,3.02,1.81,3.99c-1.09.97-3.26,1.57-3.26,1.57"/>
            <path class="cls-5" d="m304.39,212.53s-1.21,1.33-3.87-1.45"/>
            <path class="cls-2" d="m303.04,220.79s-2.76-.29-3.84-1.01c-1.09-.73-4.23-3.14-4.23-3.14l6.16,10.64,1.07-1.31.83-5.18Z"/>
            <path class="cls-7" d="m288.8,203.1s-2.3-6.89-4.96-3.02c-2.66,3.87,1.57,9.31,3.63,9.19"/>
            <ellipse class="cls-11" cx="299.86" cy="202.74" rx="1.03" ry="1.45"/>
            <ellipse class="cls-11" cx="308.92" cy="202.74" rx="1.03" ry="1.45"/>
            <path class="cls-5" d="m297.14,199.59s2.18-2.18,5.08-.48"/>
            <path class="cls-5" d="m306.93,198.87s3.26-1.33,3.99,1.21"/>
          </g>
          <polygon class="cls-7" points="284.81 221.59 293.27 232.35 287.47 238.64 280.94 226.91 284.81 221.59"/>
          <polyline class="cls-2" points="257.61 180.12 296.99 259.68 286.4 259.68 254.66 182.55"/>
          <polygon class="cls-7" points="293.27 232.35 294.52 235.99 291.58 234.53 293.27 232.35"/>
          <polygon class="cls-7" points="296.29 230.54 300.4 238.64 306.69 228 302.46 224.62 296.29 230.54"/>
          <polygon class="cls-7" points="296.29 230.54 294.52 235.99 297.5 233.08 296.29 230.54"/>
        </g>
      </g>
      <g>
        <g>
          <path class="cls-3" d="m466.44,267.3c.69-1.53,4.18-9.51,2.93-11.62-7.12-11.97-9.21-4.04-11.75-10.03-4.28-10.06-7.89-17.07-9.43-18.12-2.97-2.03-22.51-5.78-22.51-5.78l-23.92-.63s-20.64,8.44-22.04,10.32c-.6.81-5.04,6.1-8.13,13.56-.31.76-7.45,6.46-7.76,7.22-3.37,8.17-.24,13.83.55,15.07h102.07Z"/>
          <path class="cls-5" d="m387.01,239.94c.24,8.25.24,16.13.58,24.27"/>
          <line class="cls-5" x1="386.89" y1="234.97" x2="386.95" y2="237.45"/>
          <path class="cls-5" d="m441.91,239.14c-.48,6.34-.95,12.69-1.43,19.03-.15,2.02-.3,4.05-.46,6.07"/>
          <line class="cls-5" x1="442.25" y1="234.51" x2="442.13" y2="236.19"/>
        </g>
        <path class="cls-4" d="m408.26,248.16c.24,4.4-.24,13.3-.61,19.13h15.98c-.77-6.94-2-18.17-2.25-20.63-.37-3.62-5.24-13.99-5.24-13.99l3.12-4.12-5.62-5.87-3.62,5.62,2.87,4.75s-4.99,8.24-4.62,15.11Z"/>
        <polygon class="cls-3" points="404.89 211.95 403.89 219.44 414.5 225.31 423.99 219.57 423.62 214.07 404.89 211.95"/>
        <polygon class="cls-2" points="403.89 219.44 407.45 221.42 413.49 218.89 406.76 212.16 404.89 211.95 403.89 219.44"/>
        <g>
          <path class="cls-3" d="m404.14,182.32s-3.53,2.52-3.78,6.18c-.25,3.66,1.64,20.55,3.66,24.33,2.02,3.78,4.41,6.81,9.33,7.69s10.72-4.03,11.35-6.3c.63-2.27,3.03-13.99,3.03-18.41s.5-9.46-3.53-13.11c-4.03-3.66-10.59-4.41-13.74-3.78-3.15.63-6.3,3.4-6.3,3.4Z"/>
          <path class="cls-2" d="m424.19,182.7c-4.03-3.66-10.59-4.41-13.74-3.78-3.15.63-6.3,3.4-6.3,3.4,0,0-3.53,2.52-3.78,6.18-.12,1.78.26,6.7.92,11.72.26.04.59-.08.59-1,0-1.51-.88-2.4.25-3.66,1.13-1.26,2.9-3.03,3.91-4.66,1.01-1.64.76-4.16.76-4.16,0,0,2.27,1.89,6.81,2.4,4.54.5,9.46.5,10.21.63.76.13-.25.88.88,2.4,1.13,1.51,1.64,2.27,1.76,3.03.11.65.69,4.3.84,5.3.25-1.85.42-3.51.42-4.66,0-4.41.5-9.46-3.53-13.11Z"/>
          <path class="cls-5" d="m411.83,206.02s2.14,1.39,3.53,1.13c1.39-.25,2.77-1.26,2.77-1.26"/>
          <path class="cls-5" d="m418.26,196.56s2.9-2.14,5.8.25"/>
          <path class="cls-5" d="m412.21,196.82s-3.4-2.27-5.8.5"/>
          <path class="cls-11" d="m410.32,199.21c0,.63-.31,1.13-.69,1.13s-.69-.51-.69-1.13.31-1.13.69-1.13.69.51.69,1.13Z"/>
          <path class="cls-11" d="m420.85,199.21c0,.63-.31,1.13-.69,1.13s-.69-.51-.69-1.13.31-1.13.69-1.13.69.51.69,1.13Z"/>
          <path class="cls-5" d="m409.56,210.18s4.92,2.14,9.83-.13"/>
          <path class="cls-3" d="m401.12,197.95s-2.02-1.64-2.77,1.26c-.76,2.9,3.91,6.68,3.91,6.68l-1.13-7.94Z"/>
          <path class="cls-3" d="m427.59,198.46s1.13-1.89,2.14.5c1.01,2.4-3.53,7.69-3.53,7.69l1.39-8.19Z"/>
          <path class="cls-2" d="m415.06,208.25s-6-.85-7.26,1.17c-1.09,1.74-.48,6.6.52,8.94,1.34,1.03,2.96,1.79,5.03,2.16,2.44.44,5.11-.56,7.24-1.95.5-.71,1.21-2.5.95-6.88-.21-3.54-1.74-3.89-6.48-3.44Zm4.51,8.19s-1.96,1.5-4.78,1.42c-1.02-.03-4.28-.09-5.41-1.24-1.13-1.15-2.04-5.48-.91-6.89,1.13-1.41,6.52-.82,6.52-.82,4.26-.31,5.63-.07,5.82,2.41.35,4.57-1.25,5.12-1.25,5.12Z"/>
          <path class="cls-2" d="m416.47,215.8c0,.51-.73,2.06-1.63,2.06s-1.63-1.55-1.63-2.06.73-.93,1.63-.93,1.63.41,1.63.93Z"/>
        </g>
        <polygon class="cls-3" points="414.5 225.31 405.39 233.8 400.52 220.94 403.64 218.44 414.5 225.31"/>
        <polygon class="cls-3" points="414.5 225.31 421.87 234.93 426.74 222.19 423.99 219.57 414.5 225.31"/>
        <polyline class="cls-2" points="454.18 180.12 395.94 259.68 406.53 259.68 457.12 182.55"/>
        <path class="cls-3" d="m360.61,267.3h14.71c1.41-1.64,2.77-3.51,3.14-3.96.63-.78,2.34-3.6,1.25-7.5-1.09-3.91-4.69-6.1-4.69-6.1l-3.91.78s-3.28-1.09-5.78,0c-2.5,1.09-5.78,4.85-7.04,9.22-1,3.5.6,6.1,2.32,7.56Z"/>
        <path class="cls-5" d="m369.96,251.26c-2.74,3.75-4.66,8.66-1.77,12.87"/>
        <path class="cls-3" d="m392.28,245.87s2.59-.65,3.45-.11c.86.54,1.83,2.37,2.26,3.34.43.97-.22,1.83-1.62,2.05-1.4.22-3.23-1.62-3.23-1.62l-.86-3.67Z"/>
        <polygon class="cls-2" points="445.76 251.71 443.68 249.03 422.05 262.6 406.53 262.6 385.05 250.37 383.26 252.31 393.82 267.3 433.64 267.3 445.76 251.71"/>
        <path class="cls-2" d="m382.19,267.3c.95-16.97,15-30.44,32.21-30.44s31.25,13.47,32.21,30.44h5.15c-.96-19.81-17.31-35.58-37.35-35.58s-36.4,15.77-37.35,35.58h5.15Z"/>
        <g>
          <path class="cls-3" d="m378.16,243.28s-6.58,9.49-6.79,12.83c-.22,3.34,1.29,6.79,4.53,7.33,3.23.54,3.77-1.51,3.77-1.51,0,0,7.01,1.51,7.33,1.51s1.08-.32,1.29-1.08c.22-.75.75-1.72.75-1.72,0,0,.97-.65,1.62-1.83.65-1.19.86-1.73.86-1.73,0,0,1.19-1.73,1.4-2.48.22-.75.22-2.16.22-2.16,0,0,1.08-1.4.97-2.91-.11-1.51-1.62-4.2-4.74-5.93-3.13-1.73-7.55-2.48-9.06-2.26-1.51.22-2.16,1.94-2.16,1.94Z"/>
          <line class="cls-5" x1="384.28" y1="247.35" x2="393.14" y2="252.44"/>
          <line class="cls-5" x1="382.26" y1="246.19" x2="383.39" y2="246.84"/>
          <line class="cls-5" x1="379.67" y1="250.93" x2="391.53" y2="257.08"/>
          <line class="cls-5" x1="381.28" y1="257.19" x2="389.05" y2="260.64"/>
          <line class="cls-5" x1="378.59" y1="256" x2="380.13" y2="256.68"/>
        </g>
        <path class="cls-3" d="m454.14,267.3h14.71c1.72-1.46,3.32-4.06,2.32-7.56-1.25-4.38-4.53-8.13-7.04-9.22-2.5-1.09-5.78,0-5.78,0l-3.91-.78s-3.6,2.19-4.69,6.1c-1.09,3.91.63,6.72,1.25,7.5.36.45,1.72,2.32,3.13,3.96Z"/>
        <path class="cls-5" d="m462.2,262.34c-.23.6-.53,1.2-.93,1.78"/>
        <path class="cls-5" d="m459.5,251.26c2.01,2.75,3.58,6.12,3.13,9.38"/>
        <path class="cls-3" d="m437.18,245.87s-2.59-.65-3.45-.11c-.86.54-1.83,2.37-2.26,3.34-.43.97.22,1.83,1.62,2.05,1.4.22,3.23-1.62,3.23-1.62l.86-3.67Z"/>
        <g>
          <path class="cls-3" d="m451.3,243.28s6.58,9.49,6.79,12.83c.22,3.34-1.29,6.79-4.53,7.33-3.23.54-3.77-1.51-3.77-1.51,0,0-7.01,1.51-7.33,1.51s-1.08-.32-1.29-1.08c-.22-.75-.75-1.72-.75-1.72,0,0-.97-.65-1.62-1.83-.65-1.19-.86-1.73-.86-1.73,0,0-1.19-1.73-1.4-2.48-.22-.75-.22-2.16-.22-2.16,0,0-1.08-1.4-.97-2.91.11-1.51,1.62-4.2,4.74-5.93,3.13-1.73,7.55-2.48,9.06-2.26,1.51.22,2.16,1.94,2.16,1.94Z"/>
          <line class="cls-5" x1="445.18" y1="247.35" x2="436.32" y2="252.44"/>
          <line class="cls-5" x1="447.21" y1="246.19" x2="446.07" y2="246.84"/>
          <line class="cls-5" x1="449.79" y1="250.93" x2="437.93" y2="257.08"/>
          <line class="cls-5" x1="448.18" y1="257.19" x2="440.41" y2="260.64"/>
          <line class="cls-5" x1="450.87" y1="256" x2="449.33" y2="256.68"/>
        </g>
      </g>
      <g>
        <g>
          <path class="cls-2" d="m481.46,332.99v63.16h-246.92v-63.16h-46.42v92.31c0,7.16,5.8,12.97,12.97,12.97h20.49c7.16,0,12.97-5.8,12.97-12.97v-4.26h22.49l10.53-6.7h179.92l13.4,7.66h20.58v3.3c0,7.16,5.8,12.97,12.97,12.97h20.49c7.16,0,12.97-5.8,12.97-12.97v-92.31h-46.42Z"/>
          <path class="cls-4" d="m518.3,287.53c-1.72-3.44-14.26-16.54-16.79-19.16-.29-.31-.54-.65-.74-1.02-3.07-5.86-29.11-72.97-33.68-81.48-8.38-15.63-15.1-13.27-24.05-14.41-.26-.03-.52.04-.79.03l-67.95-3.44c-11.19-.57-22.4-.57-33.59,0-18.39.92-36.78,1.82-55.17,2.76-15.35.78-30.14-.21-38.57,15.06-4.67,8.46-30.61,75.6-33.68,81.48-.2.38-.45.72-.74,1.03-2.53,2.63-15.06,15.72-16.78,19.16-1.91,3.83-9.57,18.18-9.57,21.06,0,2.48,1.78,43.41,9.64,75.5,2.34,9.56,9.59,17.23,19.06,19.91.67.19,1.18.3,1.44.3h59.61c1.61,0,3.1-.86,3.9-2.25l14.1-24.36c.28-.48.64-.9,1.07-1.25,2.22-1.79,9.72-7.07,20.85-7.07h82.31c11.13,0,18.63,5.28,20.85,7.07.43.35.79.77,1.07,1.25l14.1,24.36c.81,1.39,2.29,2.25,3.9,2.25h59.61c.27,0,.77-.11,1.44-.3,9.48-2.68,16.72-10.34,19.06-19.9,7.86-32.09,9.64-73.02,9.64-75.5,0-2.87-7.66-17.23-9.57-21.06Zm-292.38-30.63c11.96-23.45,34.45-76.31,34.45-76.31,109.58-11.01,193.8-.48,193.8-.48l32.54,76.78c-74.17-7.18-260.79,0-260.79,0Z"/>
          <path class="cls-1" d="m278.56,404.29l-3.35,7.66h162.7l-2.39-7.66-15.79-27.28s-6.22-7.18-21.53-7.66c-15.31-.48-82.31,0-82.31,0,0,0-11.48-.96-21.53,7.66l-15.79,27.28Z"/>
          <path class="cls-2" d="m292.44,313.37s12.92,22.97,16.75,26.8c3.83,3.83,8.13,3.83,13.4,4.31,5.26.48,77.52,0,77.52,0,0,0,5.74-.96,8.61-5.26,2.87-4.31,12.44-25.84,12.44-25.84h-128.72Z"/>
          <path class="cls-1" d="m305.26,316.49s10.35,18.39,13.41,21.46,6.51,3.07,10.73,3.45c4.22.38,62.08,0,62.08,0,0,0,4.6-.77,6.9-4.22,2.3-3.45,9.96-20.69,9.96-20.69h-103.08Z"/>
          <g>
            <path class="cls-2" d="m410.79,396.15l-2.86-7.91c-1.81-5-6.6-8.29-11.92-8.19l-77.72.78c-5.49.11-10.25,3.8-11.72,9.09l-1.94,6.22h106.16Z"/>
            <polygon class="cls-2" points="303.44 399.98 301.06 407.64 414.94 407.64 412.17 399.98 303.44 399.98"/>
          </g>
          <path class="cls-2" d="m501.08,267.91s2.39-18.66,6.7-18.66,23.45,5.26,23.93,9.09c.48,3.83-3.83,8.13-7.66,9.09-3.83.96-11.96,1.91-11.96,1.91l-1.91,7.18-9.09-8.61Z"/>
          <path class="cls-2" d="m213.01,267.91s-2.39-18.66-6.7-18.66-23.45,5.26-23.93,9.09c-.48,3.83,3.83,8.13,7.66,9.09,3.83.96,11.96,1.91,11.96,1.91l1.91,7.18,9.09-8.61Z"/>
          <path class="cls-3" d="m268.52,310.98s8.61,9.09,11.48,25.84c0,0-40.67-1.91-56.47-8.13-15.79-6.22-17.71-6.7-18.18-9.57-.48-2.87.96-23.45,7.18-26.8,6.22-3.35,12.92-2.39,19.14,2.39,6.22,4.79,13.88,11.96,18.18,13.4,4.31,1.44,18.66,2.87,18.66,2.87Z"/>
          <path class="cls-3" d="m240.64,312.37c0,6.19-5.02,11.22-11.22,11.22s-11.22-5.02-11.22-11.22,5.02-11.22,11.22-11.22,11.22,5.02,11.22,11.22Z"/>
          <path class="cls-3" d="m260.67,326.39c0,2.88-2.33,5.21-5.21,5.21s-5.21-2.33-5.21-5.21,2.33-5.21,5.21-5.21,5.21,2.33,5.21,5.21Z"/>
          <path class="cls-3" d="m446.92,310.98s-8.61,9.09-11.48,25.84c0,0,40.67-1.91,56.47-8.13,15.79-6.22,17.71-6.7,18.18-9.57.48-2.87-.96-23.45-7.18-26.8-6.22-3.35-12.92-2.39-19.14,2.39-6.22,4.79-13.88,11.96-18.18,13.4-4.31,1.44-18.66,2.87-18.66,2.87Z"/>
          <path class="cls-3" d="m477.37,312.37c0,6.19,5.02,11.22,11.22,11.22s11.22-5.02,11.22-11.22-5.02-11.22-11.22-11.22-11.22,5.02-11.22,11.22Z"/>
          <path class="cls-3" d="m457.34,326.39c0,2.88,2.33,5.21,5.21,5.21s5.21-2.33,5.21-5.21-2.33-5.21-5.21-5.21-5.21,2.33-5.21,5.21Z"/>
          <path class="cls-2" d="m498.21,353.57s-44.5,8.61-46.42,10.05c-1.91,1.44-5.74,9.57-5.74,9.57l9.09-2.39s21.05.96,28.23-2.39c7.18-3.35,14.83-14.83,14.83-14.83Z"/>
          <path class="cls-2" d="m219.23,353.57s44.5,8.61,46.42,10.05c1.91,1.44,5.74,9.57,5.74,9.57l-9.09-2.39s-21.05.96-28.23-2.39c-7.18-3.35-14.83-14.83-14.83-14.83Z"/>
          <polyline class="cls-5" points="442.43 318.34 430.55 314.38 421.16 314.38"/>
          <polyline class="cls-5" points="273.79 317.78 281.71 313.25 292.44 313.37"/>
          <path class="cls-5" d="m476.11,264.82c1.21-.69,2.43-1.34,3.67-1.94"/>
          <path class="cls-5" d="m423.44,332.76c7.49-16.46,24.6-49.19,48.53-65.34"/>
          <path class="cls-5" d="m419.23,342.68s.59-1.57,1.73-4.28"/>
          <path class="cls-5" d="m242.05,267.41c-1.99-1.2-4.04-2.34-6.17-3.39"/>
          <path class="cls-5" d="m289.98,333.12c-4.9-14.64-17.67-44.95-43.71-62.98"/>
          <path class="cls-5" d="m292.47,341.55s-.35-1.52-1.14-4.16"/>
          <path class="cls-3" d="m222.29,290.61s-5.09-12.45-5.09-19.81"/>
          <path class="cls-3" d="m494.49,290.05s1.7-5.66,2.83-15.85"/>
          <path class="cls-5" d="m512.04,343.24l-3.4,44.14-62.82,2.83s-10.75-13.02-11.32-18.67c-.57-5.66,7.36-14.15,9.62-14.71s41.88-8.49,41.88-8.49"/>
          <path class="cls-5" d="m204.72,343.24l3.4,44.14,62.82,2.83s10.75-13.02,11.32-18.67c.57-5.66-7.36-14.15-9.62-14.71s-41.88-8.49-41.88-8.49"/>
          <path class="cls-5" d="m309.74,324.04l46.18,3.69c1.96.16,3.93.16,5.9,0l42.56-3.31"/>
          <path class="cls-5" d="m312.78,328.87l43.13,3.45c1.96.16,3.93.16,5.9,0l41.07-3.19"/>
          <path class="cls-5" d="m315.87,333.71l40.05,3.2c1.96.16,3.93.16,5.9,0l38.99-3.03"/>
        </g>
        <path class="cls-5" d="m225.93,256.91s186.62-7.18,260.79,0l-32.54-76.78s-84.22-10.53-193.8.48c0,0-22.49,52.86-34.45,76.31Z"/>
      </g>
    </g>
  </g>
</svg>