<?xml version="1.0" encoding="UTF-8"?>
<svg id="Layer_2" data-name="Layer 2" xmlns="http://www.w3.org/2000/svg" viewBox="0 0 315.64 167.72">
  <defs>
    <style>
      .cls-1 {
        letter-spacing: -.02em;
      }

      .cls-1, .cls-2, .cls-3 {
        fill: #ff6224;
      }

      .cls-4 {
        font-family: Lato-Semibold, Lato;
        font-size: 13px;
        font-weight: 600;
      }

      .cls-4, .cls-5 {
        fill: #3b4051;
      }

      .cls-6 {
        fill: #fff;
      }

      .cls-7 {
        fill: #a5e9f9;
      }

      .cls-8 {
        letter-spacing: .17em;
      }

      .cls-9 {
        letter-spacing: .17em;
      }

      .cls-10 {
        letter-spacing: .13em;
      }

      .cls-11 {
        letter-spacing: .2em;
      }

      .cls-12 {
        fill: #bf5df4;
        letter-spacing: 0em;
      }

      .cls-13 {
        letter-spacing: .2em;
      }

      .cls-14 {
        font-family: MyriadPro-Regular, 'Myriad Pro';
        font-size: 41.42px;
      }

      .cls-3 {
        letter-spacing: 0em;
      }
    </style>
  </defs>
  <g id="OBJECTS">
    <g>
      <path class="cls-5" d="m0,101.49c6.58-.17,13.15-.31,19.73-.41l19.73-.34,39.46-.43c26.3-.21,52.61-.29,78.91-.26l39.46.1,19.73.1,19.73.18,39.46.4c13.15.22,26.3.36,39.46.67v1c-13.15.31-26.3.45-39.46.67l-39.46.4-19.73.18-19.73.1-39.46.1c-26.3.04-52.61-.04-78.91-.26l-39.46-.43-19.73-.34c-6.58-.11-13.15-.24-19.73-.41v-1Z"/>
      <g>
        <rect class="cls-5" x="259.79" y="25.38" width="39.74" height="4" transform="translate(31.16 158.55) rotate(-33.42)"/>
        <path class="cls-5" d="m289.51,28.41h-68.44l24.87-16.47c1.95-1.29,4.24-1.98,6.57-1.98h51.67c4.28,0,5.95,5.55,2.38,7.92l-14.94,9.89c-.63.42-1.37.64-2.13.64Z"/>
        <g>
          <path class="cls-2" d="m297.24,15.49h-44.33c-.28,0-.5-.22-.5-.5s.22-.5.5-.5h44.33c.28,0,.5.22.5.5s-.22.5-.5.5Z"/>
          <path class="cls-2" d="m290.97,18.94h-44.33c-.28,0-.5-.22-.5-.5s.22-.5.5-.5h44.33c.28,0,.5.22.5.5s-.22.5-.5.5Z"/>
          <path class="cls-2" d="m284.69,22.39h-44.33c-.28,0-.5-.22-.5-.5s.22-.5.5-.5h44.33c.28,0,.5.22.5.5s-.22.5-.5.5Z"/>
        </g>
      </g>
      <g>
        <g>
          <path class="cls-7" d="m75.06,35.44C108.59,5,132.05,3.24,157.9,3.24s65.72-5.12,97.12,32.2H75.06Z"/>
          <path class="cls-5" d="m255.02,38.44c-.86,0-1.7-.36-2.3-1.07C225.48,4.99,191.31,5.64,166.36,6.13c-2.97.06-5.77.11-8.46.11-26.18,0-48.76,2.31-80.82,31.42-1.23,1.11-3.12,1.02-4.24-.2-1.11-1.23-1.02-3.12.2-4.24C106.7,2.67,130.4.24,157.9.24c2.63,0,5.4-.05,8.34-.11,26.16-.51,61.98-1.2,91.08,33.38,1.07,1.27.9,3.16-.36,4.23-.56.47-1.25.7-1.93.7Z"/>
        </g>
        <path class="cls-5" d="m193.57,46.15s-.07,0-.1,0h0s-15.24,0-15.24,0v.03c-11.01.54-19.81,12.54-19.81,27.28s8.8,26.75,19.81,27.28v.03h15.24s.07,0,.1,0c11.36,0,20.57-12.23,20.57-27.31s-9.21-27.31-20.57-27.31Z"/>
        <path class="cls-7" d="m172.38,92.22h126.43v-15.77s-4.81-43.09-70.71-43.09h-77.4v8.2s13.2-.13,18.49,14.16c5.29,14.29,3.18,36.5,3.18,36.5Z"/>
        <g>
          <ellipse class="cls-5" cx="143.43" cy="73.46" rx="20.57" ry="27.31"/>
          <rect class="cls-5" x="142.66" y="46.15" width="15.24" height="54.62"/>
          <ellipse class="cls-2" cx="158" cy="73.46" rx="19.62" ry="26.04"/>
          <path class="cls-5" d="m158,52.15c7.9,0,14.57,9.76,14.57,21.31s-6.67,21.31-14.57,21.31-14.57-9.76-14.57-21.31,6.67-21.31,14.57-21.31m0-6c-11.36,0-20.57,12.23-20.57,27.31s9.21,27.31,20.57,27.31,20.57-12.23,20.57-27.31-9.21-27.31-20.57-27.31h0Z"/>
          <ellipse class="cls-6" cx="158" cy="73.46" rx="8.94" ry="14.51"/>
          <path class="cls-5" d="m157.64,78.83c-1.4,0-2.96-2.21-2.96-5.37s1.56-5.37,2.96-5.37,2.96,2.21,2.96,5.37-1.56,5.37-2.96,5.37Z"/>
        </g>
        <path class="cls-5" d="m65.2,46.15s-.07,0-.1,0h0s-15.24,0-15.24,0v.03c-11.01.54-19.81,12.54-19.81,27.28s8.8,26.75,19.81,27.28v.03h15.24s.07,0,.1,0c11.36,0,20.57-12.23,20.57-27.31s-9.21-27.31-20.57-27.31Z"/>
        <g>
          <ellipse class="cls-5" cx="246.29" cy="73.46" rx="20.57" ry="27.31"/>
          <rect class="cls-5" x="245.52" y="46.15" width="15.24" height="54.62"/>
          <ellipse class="cls-2" cx="260.86" cy="73.46" rx="19.62" ry="26.04"/>
          <path class="cls-5" d="m260.86,52.15c7.9,0,14.57,9.76,14.57,21.31s-6.67,21.31-14.57,21.31-14.57-9.76-14.57-21.31,6.67-21.31,14.57-21.31m0-6c-11.36,0-20.57,12.23-20.57,27.31s9.21,27.31,20.57,27.31,20.57-12.23,20.57-27.31-9.21-27.31-20.57-27.31h0Z"/>
          <ellipse class="cls-6" cx="260.86" cy="73.46" rx="8.94" ry="14.51"/>
          <path class="cls-5" d="m260.5,78.83c-1.4,0-2.96-2.21-2.96-5.37s1.56-5.37,2.96-5.37,2.96,2.21,2.96,5.37-1.56,5.37-2.96,5.37Z"/>
        </g>
        <path class="cls-7" d="m136.33,92.22H19.31v-15.77s4.81-43.09,70.71-43.09h67.98v8.2s-13.2-.13-18.49,14.16c-5.29,14.29-3.18,36.5-3.18,36.5Z"/>
        <path class="cls-7" d="m242.02,55.73c5.29-14.29,18.49-14.16,18.49-14.16v-3.8c-12.32-4.41-19.34-4.41-32.4-4.41h-15.21v58.86h25.93s-2.11-22.2,3.18-36.5Z"/>
        <path class="cls-5" d="m301.82,95.22h-28.93c-1.66,0-3-1.34-3-3s1.34-3,3-3h22.93v-12.51c-.63-3.37-7.69-36.58-42.92-39.48-1.65-.14-2.88-1.58-2.74-3.24.14-1.65,1.57-2.88,3.24-2.74,41.05,3.37,48.32,44.29,48.39,44.7l.04.49v18.77Z"/>
        <path class="cls-5" d="m157.96,48.32c-.06,0-.38.02-.6.04-.24.01-.5.06-.76.09-.51.08-1.04.17-1.55.31-1.04.24-2.04.62-3.01,1.04-1.93.89-3.66,2.12-5.12,3.65-2.97,3.04-4.52,4.17-5.62,8.89-1.02,4.71-1.53,9.66-1.73,14.63-.18,4.95-.1,10.06.31,14.91l.32,3.91H15.74v-3.57h0c-.05-5.26-.04-10.51-.03-15.77v-.23s.02-.17.02-.17c.13-.97.27-1.6.43-2.36.16-.73.36-1.44.55-2.14.42-1.4.87-2.78,1.42-4.12,1.05-2.7,2.39-5.26,3.92-7.7,1.53-2.43,3.25-4.74,5.15-6.89,1.93-2.11,3.95-4.14,6.17-5.93,4.37-3.65,9.31-6.53,14.44-8.76,5.14-2.23,10.49-3.83,15.9-4.96,5.41-1.14,10.88-1.67,16.33-1.97l4.09-.16h4.08c2.73.02,5.37.16,8.06.22,10.71.41,21.41.97,32.12,2.07-10.71,1.1-21.41,1.67-32.12,2.07-2.66.1-5.38.13-8,.28l-3.94.18-3.93.33c-5.22.52-10.41,1.26-15.43,2.56-10.05,2.46-19.65,6.71-27.28,13.26-3.81,3.26-7.08,7.09-9.62,11.36-1.28,2.12-2.35,4.36-3.26,6.65-.46,1.14-.84,2.31-1.18,3.47-.16.58-.31,1.17-.44,1.74l-.18.86c-.05.26-.1.6-.12.73l.02-.4c.01,5.26.02,10.51-.03,15.77h0s-3.57-3.57-3.57-3.57h117.01l-3.56,3.91c-.44-5.38-.52-10.56-.33-15.87.21-5.28,1.68-10.75,2.84-16.07.67-2.67.38-1.97,1.61-4.66,1.17-2.66,2.75-5.25,4.86-7.43,2.08-2.19,4.6-3.98,7.34-5.24,1.38-.61,2.79-1.13,4.25-1.47.73-.19,1.47-.32,2.22-.44.38-.05.75-.11,1.15-.14.42-.04.73-.07,1.32-.07,1.97-.02,3.58,1.56,3.6,3.53.02,1.92-1.48,3.49-3.37,3.6l-.3.02Z"/>
        <path class="cls-5" d="m238.83,95.79h-66.45c-1.97,0-3.57-1.6-3.57-3.57s1.6-3.57,3.57-3.57h62.55c-.6-9.05-.88-27.87,9.15-39.64,4.2-4.93,9.68-7.56,16.29-7.82,2-.07,3.63,1.46,3.71,3.43.07,1.97-1.46,3.63-3.43,3.71-4.59.17-8.22,1.91-11.11,5.3-10.52,12.35-7.18,37.86-7.15,38.15l.49,4h-4.03Z"/>
        <path class="cls-5" d="m158.03,41.17c14.64,0,21.53,13.58,20.14,30.09,0,0-10.75-30.12-37.5-15.05l17.36-15.05Z"/>
        <path class="cls-5" d="m260.16,41.17c14.64,0,21.53,13.58,20.14,30.09,0,0-8.35-31.38-35.09-16.3l14.96-13.79Z"/>
      </g>
      <g>
        <path class="cls-5" d="m150.28,34.03h-60.13s18.92-16.41,32.7-19.45c21.55-4.76,48.48-2.58,48.48-2.58,0,0-10.19,2.25-21.05,22.03Z"/>
        <g>
          <path class="cls-6" d="m159.84,11.52l-22.5,22.5h2.73l22.45-22.45c-.85-.02-1.74-.04-2.68-.05Z"/>
          <path class="cls-6" d="m109.43,34.03h22.21l22.52-22.52c-7.13.07-15.64.49-23.93,1.72l-20.79,20.79Z"/>
        </g>
      </g>
      <g>
        <path class="cls-5" d="m190.58,12.33c27.79.64,50.66,21.7,50.66,21.7h-85.06s5.45-22.37,34.4-21.7Z"/>
        <g>
          <path class="cls-6" d="m206.78,14.92l-19.11,19.11h10.75l16.33-16.33c-2.54-1.04-5.21-1.98-7.98-2.78Z"/>
          <path class="cls-6" d="m229.45,25.3c-3.23-2.04-7.03-4.18-11.26-6.12l-14.84,14.84h17.39l8.72-8.72Z"/>
        </g>
      </g>
      <g>
        <path class="cls-5" d="m48.15,56.22l72.7-4.7-1.57.89h0c1.9-2.47,3.92-4.5,6.14-6.46,2.21-1.93,4.58-3.67,7.11-5.12,2.52-1.46,5.21-2.64,8-3.4,2.78-.79,5.67-1.13,8.51-1.06-2.84.26-5.61.92-8.2,1.99-2.6,1.05-5.02,2.46-7.25,4.12-2.23,1.65-4.27,3.54-6.13,5.58-1.83,2.02-3.58,4.28-4.91,6.5h0s-.65.88-.65.88h-.92s-72.85.79-72.85.79Z"/>
        <path class="cls-6" d="m42.6,67.59c0,4.04-2.81,7.32-6.27,7.32s-6.27-3.28-6.27-7.32,2.81-7.32,6.27-7.32,6.27,3.28,6.27,7.32Z"/>
        <ellipse class="cls-6" cx="114.65" cy="67.59" rx="6.27" ry="7.32"/>
        <path class="cls-5" d="m50.23,68.5h45.52v5.39c0,2.73-2.21,4.94-4.94,4.94h-35.64c-2.73,0-4.94-2.21-4.94-4.94v-5.39h0Z"/>
        <path class="cls-5" d="m207.54,43.65l15.77,2.5-15.77,2.5c-1.38.22-2.68-.72-2.9-2.1-.22-1.38.72-2.68,2.1-2.9.27-.04.54-.04.79,0Z"/>
        <path class="cls-5" d="m27.68,78.33c8.09-.65,16.17-.97,24.26-1.19,8.09-.2,16.17-.29,24.26-.25,8.09.03,16.17.12,24.26.35,8.09.22,16.17.52,24.26,1.09v1c-8.09.57-16.17.87-24.26,1.09-8.09.23-16.17.32-24.26.35-8.09.04-16.17-.05-24.26-.25-8.09-.22-16.17-.54-24.26-1.19v-1Z"/>
        <polygon class="cls-5" points="192.07 78.33 241.24 76.87 241.24 80.79 192.07 79.33 192.07 78.33"/>
      </g>
    </g>
  </g>
  <g id="TEXTS">
    <g>
      <text class="cls-14" transform="translate(8.14 145.5)"><tspan class="cls-2" x="0" y="0">T</tspan><tspan class="cls-3" x="20.59" y="0">R</tspan><tspan class="cls-2" x="43" y="0">OPI</tspan><tspan class="cls-1" x="103.47" y="0">C</tspan><tspan class="cls-2" x="126.63" y="0">OLA </tspan><tspan class="cls-12" x="208.85" y="0">RENT</tspan></text>
      <text class="cls-4" transform="translate(84.31 164.12)"><tspan class="cls-11" x="0" y="0">REN</tspan><tspan class="cls-8" x="33.52" y="0">T</tspan><tspan class="cls-11" x="43.47" y="0" xml:space="preserve"> I</tspan><tspan class="cls-10" x="55.66" y="0">T</tspan><tspan class="cls-13" x="65.1" y="0">, DRIVE I</tspan><tspan class="cls-9" x="140.03" y="0">T</tspan></text>
    </g>
  </g>
</svg>